<svg xmlns="http://www.w3.org/2000/svg" width="220" height="50" viewBox="0 0 220 50" xml:space="preserve"><path fill="#959697" d="M46.4 43.7s-.2-3.5-.4-5.5l-1.7-17.6c-.1-1.2-.3-2.8-.5-3.9 1.5-.1 3.1-.2 4.2-.3l20.2-2c1-.1 2.4-.2 3.8-.4 0 1.2.2 2.7.3 3.9L74 35.6c.2 1.6.6 5.4.6 5.4l-28.2 2.7zm3.9-22L51.8 37l16.3-1.6-1.5-15.3-16.3 1.6z"/><path fill="#696A6A" d="M96 29.1c-1.7 3.3-5.1 8.1-7 10.2l-4.8-3.2c2.4-2.4 5.2-6.2 6.8-9.4l5 2.4z"/><path fill="#959697" d="M104.4 24.2v16.5c0 2.2-1.4 3.7-4.2 3.7-2.2 0-4.3-.1-6.3-.3l-.5-5.4c1.5.3 3.1.4 4 .4.9 0 1.2-.3 1.3-1.2V24.2H90c-1.1 0-2.7 0-3.8.1v-5.8c1.1.1 2.6.3 3.8.3h8.7v-2.4c0-1-.2-2.8-.3-3.5h6.5c-.1.5-.4 2.6-.4 3.5v2.4h7.8c1.1 0 2.9-.1 3.9-.3v5.8c-1.2-.1-2.8-.1-3.9-.1h-7.9z"/><path fill="#696A6A" d="M111.8 26.6c1.8 2.3 4.7 7 6.2 9.6l-5.2 2.8c-1.6-3.3-4.2-7.6-5.8-9.8l4.8-2.6zM130.2 38.4c0 1 .2 3.9.4 5.5h-6.9c.3-1.6.4-4 .4-5.5V17.6c0-1.5-.1-3.4-.4-4.7h6.9c-.1 1.4-.4 3-.4 4.7v20.8z"/><path fill="#959697" d="M161.7 35.4c0 2.1 1.2 2.6 3.9 2.6 3.1 0 6.5-.2 9.3-.5l-.4 6c-2.1.1-6.6.2-10 .2-7.3 0-8.9-2.5-8.9-6.6v-6.3h-5.3c-1.1 0-3.1.1-4.3.2v-5.8c1.1.1 3.1.2 4.3.2h5.3V20h-3.5c-1.3 0-2.6 0-3.7.1v-5.5c1.1.1 2.3.2 3.7.2h17.7c1.2 0 2.6-.1 3.4-.2v5.5c-1 0-2.1-.1-3.4-.1h-8.1v5.4H172c.8 0 2.8-.1 3.8-.2v5.6c-1.1-.1-2.9-.1-3.7-.1h-10.4v4.7z"/><path fill="#F49E39" d="M42.7 20.2c-4.9 1-8.4 5.6-7.9 10.8s4.8 9 9.8 9.1l-1.9-19.9zM73.8 17.2a10.07 10.07 0 0 1 1.9 19.9l-1.9-19.9z"/><circle fill="#F6EC15" cx="57" cy="8.8" r="5.4"/><path fill="#D4D4D4" d="m51.93 12.85 11.05-1.08.18 1.9-11.04 1.07z"/><path fill="#FED30A" d="M185.1 8.5c-6 1-6.8 1.8-7.8 7.8-1-6-1.8-6.8-7.8-7.8 6-1 6.8-1.8 7.8-7.8.9 6 1.7 6.8 7.8 7.8z"/><path fill="#F49E39" d="M188.7 21.8c-3.5.6-4 1-4.6 4.6-.6-3.5-1-4-4.6-4.6 3.5-.6 4-1 4.6-4.6.6 3.6 1 4.1 4.6 4.6z"/><path fill="#F6EC15" d="M199.5 12.9c-5 .8-5.6 1.5-6.4 6.4-.8-5-1.5-5.6-6.4-6.4 5-.8 5.6-1.5 6.4-6.4.7 4.9 1.4 5.6 6.4 6.4z"/><path fill="#343434" d="m142.5 34.2-14-5.9c-.7-.3-1-1.1-.8-1.8.3-.7 1.1-1 1.8-.8l14 5.9c.7.3 1 1.1.8 1.8-.3.7-1.1 1-1.8.8z"/><circle fill="#CFA267" cx="130.1" cy="27.5" r="3.8"/><circle fill="#9B9CA1" cx="130.1" cy="27.5" r="2.7"/><circle fill="#CFA267" cx="110.2" cy="16.4" r="3.2"/><circle fill="#CFA267" cx="116.2" cy="13.8" r="3.2"/><path fill="#696A6A" d="M155.7 30.8h-5.3c-1.1 0-3.1.1-4.3.2v-5.8c1.1.1 3.1.2 4.3.2H172c.8 0 2.8-.1 3.8-.2v5.6c-1.1-.1-2.9-.1-3.7-.1h-16.4zM43.8 16.6l6-.5.5 5.6L51.8 37l.6 6-6 .6-2.6-27m0 0"/><path fill="#CFA267" d="m17.09 44.25 8.28-7.4 2 2.24-8.28 7.4z"/><path fill="#D3D3D3" d="m23.01 46.36 3.4-5.3 1.86 1.19-3.4 5.3zM27.68 48.57l1.54-6.1 2.13.53-1.54 6.1zM32.1 43h2.2v6.3h-2.2zM35.6 43h2.2v6.3h-2.2zM39 43h2.2v6.3H39zM16.8 26.3c1.7 2 1.9 4.7.7 6.9 1.4-.2 2.8.2 3.8 1.3.7.8 1 1.8 1 2.8a12.2 12.2 0 0 0-.7-15.1c-4.2-4.9-11.4-5.7-16.5-1.9l3.4 5.2c2.5-2 6.2-1.6 8.3.8z"/><path fill="#D3D3D3" d="M20.6 35.2a3.06 3.06 0 0 0-4.4-.3 6.02 6.02 0 0 1-8-9l-4.6-4.2C-.9 26.1-1.2 33.4 3 38.3c4.4 5.1 12.2 5.7 17.3 1.3 1.3-1.1 1.4-3.1.3-4.4z"/><circle fill="#FFF" cx="18.2" cy="37.2" r="1.2"/><path fill="#CFA267" d="m191.2 39.17 2-2.24 8.27 7.39-2 2.24z"/><path fill="#D3D3D3" d="m190.2 42.32 1.85-1.19 3.4 5.3-1.85 1.2zM187.18 43.06l2.13-.54 1.54 6.1-2.13.55zM184.2 43h2.2v6.3h-2.2zM180.6 43h2.2v6.3h-2.2zM177.3 43h2.2v6.3h-2.2zM192.2 24c-2 5.2-.1 10.9 4.1 14.1-.3-1.2 0-2.5.9-3.5.8-.9 1.9-1.4 3-1.4a5.94 5.94 0 0 1-2.1-7c1.1-3.1 4.5-4.6 7.6-3.6l1.4-6.1c-6.1-1.7-12.6 1.5-14.9 7.5z"/><path fill="#D3D3D3" d="m218.3 25.6-5.5 2.9a6.05 6.05 0 0 1-9.9 6.9c-1-1.4-2.9-1.7-4.3-.7s-1.7 2.9-.7 4.3a12.3 12.3 0 0 0 17.1 2.9c5.1-3.7 6.5-10.8 3.3-16.3z"/><circle fill="#FFF" cx="200.3" cy="37.2" r="1.2"/></svg>