<?xml version="1.0" encoding="utf-8"?>
<!-- Generator: Adobe Illustrator 27.0.0, SVG Export Plug-In . SVG Version: 6.00 Build 0)  -->
<svg version="1.1" xmlns="http://www.w3.org/2000/svg" xmlns:xlink="http://www.w3.org/1999/xlink" x="0px" y="0px" width="220px"
	 height="50px" viewBox="0 0 220 50" enable-background="new 0 0 220 50" xml:space="preserve">
<g id="Layer_2" display="none">
	<g>
		<g display="inline">
			<g>
				<g>
					<path fill="#939496" d="M-151.4,15.6c0,0,0.4-11.4,0.4-17.9v-57.8c0-3.8,0-9.3-0.2-13c4.9,0.1,10.2,0.2,13.7,0.2h66.3
						c3.2,0,7.7,0,12.5-0.1c-0.2,3.9-0.2,8.8-0.2,12.8v58c0,5.1,0.2,17.7,0.2,17.7H-151.4z M-131.7-54.4v50.3h53.2v-50.3H-131.7z"/>
				</g>
			</g>
			<g>
				<path fill="#939496" d="M22.3-29.2C16.6-18.5,5.7-2.7-0.6,4.2L-16.2-6.4c8-7.7,17.1-20.2,22.1-30.5L22.3-29.2z"/>
			</g>
			<g>
				<path fill="#939496" d="M50-45.3v54c0,7.2-4.5,12.1-13.7,12.1c-7.1,0-14-0.2-20.7-1.1L13.9,2c5,1,10.1,1.3,13,1.3c3,0,4-1,4.2-4
					c0.1-3.3,0.1-38.3,0.1-44.6H2.6c-3.6,0-8.8,0.1-12.2,0.5v-18.9c3.7,0.5,8.6,1,12.2,1h28.5v-8c0-3.3-0.6-9.2-1.1-11.4h21.3
					C51-80.5,50-73.9,50-70.6v7.8h25.5c3.7,0,9.5-0.4,12.8-0.8v18.8c-4-0.4-9.3-0.5-12.7-0.5H50z"/>
			</g>
			<g>
				<path fill="#939496" d="M74.2-37.5c5.9,7.6,15.4,22.7,20.2,31.4L77.5,3.2c-5.3-10.7-13.5-24.8-19-32.1L74.2-37.5z"/>
			</g>
			<g>
				<g>
					<path fill="#939496" d="M136.8,1c0,3.2,0.7,12.6,1.3,17.9h-22.6C116.4,13.8,117,5.9,117,1v-67.9c0-4.8-0.5-10.9-1.4-15.4H138
						c-0.5,4.5-1.2,9.7-1.2,15.4V1z"/>
				</g>
			</g>
			<g>
				<g>
					<path fill="#939496" d="M247.1-8.7c0,6.8,3.9,8.4,12.7,8.4C270-0.3,280.9-1,290.1-2l-1.3,19.6c-6.9,0.4-21.5,0.7-32.6,0.7
						c-23.9,0-29-8.1-29-21.4v-20.7h-17.4c-3.6,0-10.2,0.4-14,0.6v-18.8c3.4,0.2,10.1,0.7,14,0.7h17.4v-17.5h-11.5
						c-4.4,0-8.3,0.1-12,0.4v-17.8c3.7,0.2,7.6,0.6,12,0.6h57.6c4,0,8.3-0.2,11.2-0.6v17.8c-3.2-0.1-6.8-0.4-11.2-0.4h-26.3v17.5
						h33.5c2.5,0,9.2-0.4,12.5-0.6l0.1,18.4c-3.6-0.5-9.5-0.4-12.1-0.4h-34V-8.7z"/>
				</g>
			</g>
			<g>
				<g>
					<path fill="#939496" d="M-42.1,87.6l-6.4-12.3h-4v12.3H-61v-35h12.8c7.5,0,13.7,2.5,13.7,11c0,5.1-2.4,8.4-6,10.1l7.8,13.9
						H-42.1z M-52.6,68.6h3.8c4,0,6.1-1.7,6.1-5s-2.1-4.4-6.1-4.4h-3.8V68.6z"/>
				</g>
			</g>
			<g>
				<g>
					<path fill="#939496" d="M-29.3,69.9c0-11.5,6.5-18,16-18c9.5,0,16,6.5,16,18c0,11.5-6.5,18.3-16,18.3
						C-22.8,88.3-29.3,81.4-29.3,69.9z M-5.8,69.9c0-6.8-2.9-10.8-7.5-10.8c-4.6,0-7.4,4-7.4,10.8c0,6.8,2.8,11.1,7.4,11.1
						C-8.7,81-5.8,76.7-5.8,69.9z"/>
				</g>
			</g>
			<g>
				<g>
					<path fill="#939496" d="M9.3,52.6h12.2c7.2,0,13,1.9,13,8.7c0,3.1-1.7,6.5-4.6,7.6V69c3.5,0.9,6.2,3.6,6.2,8.2
						c0,7.1-6.1,10.3-13.7,10.3H9.3V52.6z M21.2,66.5c3.6,0,5.2-1.6,5.2-4c0-2.5-1.6-3.5-5.2-3.5h-3.5v7.5H21.2z M21.9,81.2
						c4,0,6.1-1.5,6.1-4.5c0-2.9-2-4-6.1-4h-4.2v8.5H21.9z"/>
				</g>
			</g>
			<g>
				<g>
					<path fill="#939496" d="M85.7,59.6h-9.5v-7h27.4v7h-9.5v28h-8.4V59.6z"/>
				</g>
			</g>
			<g>
				<g>
					<path fill="#939496" d="M146,52.6h9.1l5.5,15.1c0.7,2,1.3,4.2,1.9,6.4h0.2c0.7-2.2,1.3-4.4,1.9-6.4l5.4-15.1h9.1v35h-7.7v-12
						c0-3.5,0.7-8.7,1.1-12.1h-0.2l-2.9,8.4l-4.7,12.8h-4.6l-4.7-12.8l-2.8-8.4h-0.2c0.4,3.4,1.1,8.7,1.1,12.1v12H146V52.6z"/>
				</g>
			</g>
			<g>
				<g>
					<path fill="#939496" d="M185.6,69.9c0-11.5,6.5-18,16-18c9.5,0,16,6.5,16,18c0,11.5-6.5,18.3-16,18.3
						C192.1,88.3,185.6,81.4,185.6,69.9z M209.1,69.9c0-6.8-2.9-10.8-7.5-10.8c-4.6,0-7.4,4-7.4,10.8c0,6.8,2.8,11.1,7.4,11.1
						C206.3,81,209.1,76.7,209.1,69.9z"/>
				</g>
			</g>
			<g>
				<path fill="#F39D39" d="M-155.9-61.8C-172.3-60-185-46.2-185-29.3s12.7,30.7,29.1,32.5V-61.8z"/>
			</g>
			<g>
				<path fill="#F39D39" d="M-54.1-61.8c16.4,1.8,29.1,15.7,29.1,32.5S-37.8,1.4-54.1,3.2V-61.8z"/>
			</g>
			<g>
				<circle fill="#F5EB11" cx="-106.1" cy="-94.1" r="17.6"/>
			</g>
			<g>
				<rect x="-123.6" y="-82.6" fill="#D2D3D3" width="36.4" height="6.1"/>
			</g>
			<g>
				
					<rect x="-202.8" y="50.6" transform="matrix(0.746 -0.666 0.666 0.746 -83.9163 -108.9312)" fill="#CEA166" width="36" height="9.8"/>
			</g>
			<g>
				
					<rect x="-183.8" y="60.4" transform="matrix(0.5399 -0.8417 0.8417 0.5399 -133.6888 -116.5921)" fill="#D2D2D2" width="20.6" height="7.3"/>
			</g>
			<g>
				
					<rect x="-171.2" y="65.3" transform="matrix(0.2444 -0.9697 0.9697 0.2444 -188.3774 -103.9309)" fill="#D2D2D2" width="20.6" height="7.3"/>
			</g>
			<g>
				<rect x="-152.4" y="59.8" fill="#D2D2D2" width="7.3" height="20.6"/>
			</g>
			<g>
				<rect x="-141" y="59.8" fill="#D2D2D2" width="7.3" height="20.6"/>
			</g>
			<g>
				<rect x="-130" y="59.8" fill="#D2D2D2" width="7.3" height="20.6"/>
			</g>
			<g>
				<path fill="#D2D2D2" d="M-202.2,5.4c5.5,6.5,6.1,15.5,2.2,22.5c4.4-0.8,9.2,0.7,12.3,4.4c2.3,2.6,3.3,5.9,3.2,9.1
					c10.4-14.6,10-35-2.2-49.2c-13.7-15.9-37.2-18.5-53.9-6.3l11.2,17C-221.2-3.7-209.2-2.7-202.2,5.4z"/>
			</g>
			<g>
				<path fill="#D2D2D2" d="M-190,34.2c-3.7-4.3-10.1-4.7-14.3-1.1l0,0c0,0,0,0,0,0c-8.2,7.1-20.7,6.1-27.7-2.1
					c-6.9-8.1-6.1-20.2,1.7-27.3l-15.1-13.6c-14.6,14.6-15.6,38.3-2,54.2c14.4,16.8,39.6,18.7,56.4,4.3c0,0,0,0,0,0
					C-186.8,44.9-186.4,38.5-190,34.2z"/>
			</g>
			<circle fill="#FFFFFF" cx="-197.7" cy="40.9" r="3.8"/>
			<g>
				
					<rect x="330.1" y="37.5" transform="matrix(0.666 -0.746 0.746 0.666 70.487 268.4899)" fill="#CEA166" width="9.8" height="36"/>
			</g>
			<g>
				
					<rect x="320.2" y="53.7" transform="matrix(0.8417 -0.5399 0.5399 0.8417 16.6979 184.949)" fill="#D2D2D2" width="7.3" height="20.6"/>
			</g>
			<g>
				
					<rect x="307.5" y="58.6" transform="matrix(0.9697 -0.2444 0.2444 0.9697 -7.4046 78.1351)" fill="#D2D2D2" width="7.3" height="20.6"/>
			</g>
			<g>
				<rect x="295.4" y="59.8" fill="#D2D2D2" width="7.3" height="20.6"/>
			</g>
			<g>
				<rect x="284" y="59.8" fill="#D2D2D2" width="7.3" height="20.6"/>
			</g>
			<g>
				<rect x="273" y="59.8" fill="#D2D2D2" width="7.3" height="20.6"/>
			</g>
			<g>
				<path fill="#D2D2D2" d="M321.7-2.2c-6.4,17-0.4,35.6,13.5,46c-0.9-3.9,0-8.2,2.8-11.5c2.5-2.9,6.1-4.5,9.6-4.6
					c-7-5.1-10.1-14.3-6.9-22.8c3.7-10,14.7-15.1,24.7-11.7l4.6-19.9C350.2-32.3,329.1-21.9,321.7-2.2z"/>
			</g>
			<g>
				<path fill="#D2D2D2" d="M406.6,3.1l-18,9.6c5.9,8.8,3.8,20.7-4.9,26.9c-8.8,6.3-21.1,4.2-27.4-4.6c0,0,0,0,0,0l0,0
					c-3.3-4.6-9.6-5.6-14.2-2.4c-4.6,3.3-5.6,9.6-2.4,14.2c0,0,0,0,0,0c12.8,18,37.8,22.2,55.8,9.4C412.6,43.9,417.2,20.8,406.6,3.1
					z"/>
			</g>
			<circle fill="#FFFFFF" cx="348" cy="40.9" r="3.8"/>
			<g>
				<circle fill="#F5EB11" cx="56.2" cy="69.9" r="17.2"/>
			</g>
			<g>
				<circle fill="#FDD206" cx="56.2" cy="69.9" r="10.9"/>
			</g>
			<g>
				<circle fill="#FFFFFF" cx="56.2" cy="69.9" r="5.3"/>
			</g>
			<g>
				<g>
					<circle fill="#F5EB11" cx="123.5" cy="69.9" r="17.2"/>
				</g>
				<g>
					<circle fill="#FDD206" cx="123.5" cy="69.9" r="10.9"/>
				</g>
				<g>
					<circle fill="#FFFFFF" cx="123.5" cy="69.9" r="5.3"/>
				</g>
			</g>
			<g>
				<path fill="#FDD206" d="M346.3-93.5c-19.7,3.2-22.3,5.8-25.5,25.5c-3.2-19.7-5.8-22.3-25.5-25.5c19.7-3.2,22.3-5.8,25.5-25.5
					C324-99.3,326.6-96.7,346.3-93.5z"/>
			</g>
			<g>
				<path fill="#F39D39" d="M358.1-50c-11.5,1.9-13.1,3.4-14.9,14.9c-1.9-11.5-3.4-13.1-14.9-14.9c11.5-1.9,13.1-3.4,14.9-14.9
					C345.1-53.4,346.6-51.9,358.1-50z"/>
			</g>
			<g>
				<path fill="#F5EB11" d="M393.3-79.2c-16.2,2.6-18.4,4.8-21,21c-2.6-16.2-4.8-18.4-21-21c16.2-2.6,18.4-4.8,21-21
					C374.9-83.9,377.1-81.8,393.3-79.2z"/>
			</g>
			<g>
				<path fill="#333333" d="M176.9-12.7l-45.8-19.1c-2.3-1-3.4-3.6-2.5-6l0,0c1-2.3,3.6-3.4,6-2.5l45.8,19.1c2.3,1,3.4,3.6,2.5,6v0
					C181.9-12.8,179.2-11.7,176.9-12.7z"/>
			</g>
			<g>
				<circle fill="#CEA166" cx="136.7" cy="-34.3" r="12.4"/>
			</g>
			<g>
				<circle fill="#999AA0" cx="136.7" cy="-34.3" r="8.8"/>
			</g>
			<circle fill="#CEA166" cx="68.8" cy="-70.5" r="10.4"/>
			<circle fill="#CEA166" cx="88.4" cy="-79.2" r="10.4"/>
		</g>
		<g display="inline">
			<g>
				<g>
					<path fill="none" stroke="#979798" stroke-width="12" stroke-linecap="round" stroke-linejoin="round" d="M-151.4,15.6
						c0,0,0.4-11.4,0.4-17.9v-57.8c0-3.8,0-9.3-0.2-13c4.9,0.1,10.2,0.2,13.7,0.2h66.3c3.2,0,7.7,0,12.5-0.1
						c-0.2,3.9-0.2,8.8-0.2,12.8v58c0,5.1,0.2,17.7,0.2,17.7H-151.4z M-131.7-54.4v50.3h53.2v-50.3H-131.7z"/>
				</g>
				<g>
					<path fill="none" stroke="#979798" stroke-width="12" stroke-linecap="round" stroke-linejoin="round" d="M-151.3-73
						c4.9,0.1,10.2,0.2,13.7,0.2h66.3c3.2,0,7.7,0,12.5-0.1c-0.2,3.9-0.2,8.8-0.2,12.8v58c0,5.1,0.2,17.7,0.2,17.7h-92.6
						c0,0,0.4-11.4,0.4-17.9v-57.8C-151.1-63.9-151.1-69.3-151.3-73 M-131.7-4.1h53.2v-50.3h-53.2V-4.1 M-152.4-74l0.1,1.1
						c0.2,3.7,0.2,9.2,0.2,12.9v57.8c0,6.4-0.4,17.8-0.4,17.9l0,1h1h92.6h1l0-1c0-0.1-0.2-12.6-0.2-17.7v-58c0-4,0-8.9,0.2-12.8
						l0.1-1.1l-1.1,0c-4.7,0.1-9.2,0.1-12.5,0.1h-66.3c-3.4,0-8.8-0.1-13.6-0.2L-152.4-74L-152.4-74z M-130.7-53.4h51.2v48.3h-51.2
						V-53.4L-130.7-53.4z"/>
				</g>
			</g>
			<g>
				<path fill="none" stroke="#979798" stroke-width="12" stroke-linecap="round" stroke-linejoin="round" d="M22.3-29.2
					C16.6-18.5,5.7-2.7-0.6,4.2L-16.2-6.4c8-7.7,17.1-20.2,22.1-30.5L22.3-29.2z"/>
				<g>
					<path fill="none" stroke="#979798" stroke-width="12" stroke-linecap="round" stroke-linejoin="round" d="M5.9-36.9l16.4,7.7
						C16.6-18.5,5.7-2.7-0.6,4.2L-16.2-6.4C-8.2-14.1,1-26.6,5.9-36.9 M5.5-38.2L5-37.3C0.2-27.3-8.8-14.9-16.9-7.1l-0.9,0.9l1,0.7
						L-1.2,5.1l0.7,0.5l0.6-0.6c6.5-7.1,17.5-23.1,23.1-33.6l0.5-0.9l-1-0.4L6.4-37.8L5.5-38.2L5.5-38.2z"/>
				</g>
			</g>
			<g>
				<path fill="none" stroke="#979798" stroke-width="12" stroke-linecap="round" stroke-linejoin="round" d="M50-45.3v54
					c0,7.2-4.5,12.1-13.7,12.1c-7.1,0-14-0.2-20.7-1.1L13.9,2c5,1,10.1,1.3,13,1.3c3,0,4-1,4.2-4c0.1-3.3,0.1-38.3,0.1-44.6H2.6
					c-3.6,0-8.8,0.1-12.2,0.5v-18.9c3.7,0.5,8.6,1,12.2,1h28.5v-8c0-3.3-0.6-9.2-1.1-11.4h21.3C51-80.5,50-73.9,50-70.6v7.8h25.5
					c3.7,0,9.5-0.4,12.8-0.8v18.8c-4-0.4-9.3-0.5-12.7-0.5H50z"/>
				<g>
					<path fill="none" stroke="#979798" stroke-width="12" stroke-linecap="round" stroke-linejoin="round" d="M51.3-82.2
						C51-80.5,50-73.9,50-70.6v7.8h25.5c3.7,0,9.5-0.4,12.8-0.8v18.8c-4-0.4-9.3-0.5-12.7-0.5H50v54c0,7.2-4.5,12.1-13.7,12.1
						c-7.1,0-14-0.2-20.7-1.1L13.9,2c5,1,10.1,1.3,13,1.3c3,0,4-1,4.2-4c0.1-3.3,0.1-38.3,0.1-44.6H2.6c-3.6,0-8.8,0.1-12.2,0.5
						v-18.9c3.7,0.5,8.6,1,12.2,1h28.5v-8c0-3.3-0.6-9.2-1.1-11.4H51.3 M52.6-83.2h-1.2H30.1h-1.2l0.3,1.2c0.5,2.2,1,7.9,1,11.2v7
						H2.6c-4.3,0-9.9-0.7-12.1-0.9l-1.1-0.1v1.1v18.9v1.1l1.1-0.1c3.3-0.3,8.5-0.5,12.1-0.5h27.5c0,25.6,0,41.5-0.1,43.5
						c-0.1,2.5-0.7,3.1-3.2,3.1c-2.8,0-7.8-0.3-12.8-1.3l-1.3-0.3l0.1,1.3l1.8,17.7l0.1,0.8l0.8,0.1c5.9,0.7,12.5,1.1,20.8,1.1
						c9.2,0,14.7-4.9,14.7-13.1v-53h24.7c3.5,0,8.7,0.1,12.6,0.5l1.1,0.1v-1.1v-18.8v-1.2l-1.1,0.2c-3.2,0.5-8.9,0.8-12.7,0.8H51
						v-6.8c0-3,0.9-9.6,1.3-11.3L52.6-83.2L52.6-83.2z"/>
				</g>
			</g>
			<g>
				<path fill="none" stroke="#979798" stroke-width="12" stroke-linecap="round" stroke-linejoin="round" d="M74.2-37.5
					c5.9,7.6,15.4,22.7,20.2,31.4L77.5,3.2c-5.3-10.7-13.5-24.8-19-32.1L74.2-37.5z"/>
				<g>
					<path fill="none" stroke="#979798" stroke-width="12" stroke-linecap="round" stroke-linejoin="round" d="M74.2-37.5
						c5.9,7.6,15.4,22.7,20.2,31.4L77.5,3.2c-5.3-10.7-13.5-24.8-19-32.1L74.2-37.5 M74.4-38.8l-0.7,0.4L58-29.8l-1,0.6l0.7,0.9
						c5.7,7.5,14,22.1,18.9,31.9l0.5,0.9L78,4l16.9-9.3l0.9-0.5l-0.5-0.9c-4.8-8.8-14.3-23.9-20.3-31.5L74.4-38.8L74.4-38.8z"/>
				</g>
			</g>
			<g>
				<g>
					<path fill="none" stroke="#979798" stroke-width="12" stroke-linecap="round" stroke-linejoin="round" d="M136.8,1
						c0,3.2,0.7,12.6,1.3,17.9h-22.6C116.4,13.8,117,5.9,117,1v-67.9c0-4.8-0.5-10.9-1.4-15.4H138c-0.5,4.5-1.2,9.7-1.2,15.4V1z"/>
				</g>
				<g>
					<path fill="none" stroke="#979798" stroke-width="12" stroke-linecap="round" stroke-linejoin="round" d="M138-82.3
						c-0.5,4.5-1.2,9.7-1.2,15.4V1c0,3.2,0.7,12.6,1.3,17.9h-22.6C116.4,13.8,117,5.9,117,1v-67.9c0-4.8-0.5-10.9-1.4-15.4H138
						 M139.1-83.3H138h-22.5h-1.2l0.3,1.2c0.9,4.1,1.4,10,1.4,15.2V1c0,5.1-0.6,12.9-1.4,17.8l-0.2,1.2h1.2h22.6h1.1l-0.1-1.1
						c-0.6-5.2-1.3-14.6-1.3-17.8v-67.9c0-4.7,0.5-9.1,0.9-13c0.1-0.8,0.2-1.6,0.3-2.4L139.1-83.3L139.1-83.3z"/>
				</g>
			</g>
			<g>
				<g>
					<path fill="none" stroke="#979798" stroke-width="12" stroke-linecap="round" stroke-linejoin="round" d="M247.1-8.7
						c0,6.8,3.9,8.4,12.7,8.4C270-0.3,280.9-1,290.1-2l-1.3,19.6c-6.9,0.4-21.5,0.7-32.6,0.7c-23.9,0-29-8.1-29-21.4v-20.7h-17.4
						c-3.6,0-10.2,0.4-14,0.6v-18.8c3.4,0.2,10.1,0.7,14,0.7h17.4v-17.5h-11.5c-4.4,0-8.3,0.1-12,0.4v-17.8c3.7,0.2,7.6,0.6,12,0.6
						h57.6c4,0,8.3-0.2,11.2-0.6v17.8c-3.2-0.1-6.8-0.4-11.2-0.4h-26.3v17.5h33.5c2.5,0,9.2-0.4,12.5-0.6l0.1,18.4
						c-3.6-0.5-9.5-0.4-12.1-0.4h-34V-8.7z"/>
				</g>
				<g>
					<path fill="none" stroke="#979798" stroke-width="12" stroke-linecap="round" stroke-linejoin="round" d="M284.5-76.1v17.8
						c-3.2-0.1-6.8-0.4-11.2-0.4h-26.3v17.5h33.5c2.5,0,9.2-0.4,12.5-0.6l0.1,18.4c-2.4-0.3-5.8-0.4-8.6-0.4c-1.4,0-2.6,0-3.5,0h-34
						v15c0,6.8,3.9,8.4,12.7,8.4C270-0.3,280.9-1,290.1-2l-1.3,19.6c-6.9,0.4-21.5,0.7-32.6,0.7c-23.9,0-29-8.1-29-21.4v-20.7h-17.4
						c-3.6,0-10.2,0.4-14,0.6v-18.8c3.4,0.2,10.1,0.7,14,0.7h17.4v-17.5h-11.5c-4.4,0-8.3,0.1-12,0.4v-17.8c3.7,0.2,7.6,0.6,12,0.6
						h57.6C277.4-75.5,281.6-75.8,284.5-76.1 M285.5-77.2l-1.1,0.1c-2.9,0.4-7.1,0.6-11,0.6h-57.6c-3.5,0-6.6-0.2-9.6-0.4
						c-0.8-0.1-1.6-0.1-2.3-0.2l-1.1-0.1v1.1v17.8v1.1l1.1-0.1c3.7-0.2,7.6-0.4,11.9-0.4h10.5v15.5h-16.4c-3.7,0-9.8-0.4-13.4-0.7
						l-0.5,0l-1.1-0.1v1.1v18.8v1.1l1.1-0.1c4.4-0.3,10.7-0.6,14-0.6h16.4V-3c0,13.4,5.1,22.4,30,22.4c11.2,0,25.9-0.4,32.6-0.7
						l0.9,0l0.1-0.9l1.3-19.6l0.1-1.2L290-3c-10.3,1.1-21,1.7-30.2,1.7c-9,0-11.7-1.7-11.7-7.4v-14h33c0.4,0,0.8,0,1.4,0
						c0.6,0,1.4,0,2.2,0c2.5,0,6.1,0,8.5,0.4l1.1,0.2l0-1.1L294-41.8l0-1.1l-1.1,0.1c-3.3,0.2-9.9,0.6-12.4,0.6h-32.5v-15.5h25.3
						c3.2,0,6,0.1,8.4,0.2c0.9,0,1.8,0.1,2.7,0.1l1,0v-1v-17.8V-77.2L285.5-77.2z"/>
				</g>
			</g>
			<g>
				<g>
					<path fill="none" stroke="#979798" stroke-width="12" stroke-linecap="round" stroke-linejoin="round" d="M-42.1,87.6
						l-6.4-12.3h-4v12.3H-61v-35h12.8c7.5,0,13.7,2.5,13.7,11c0,5.1-2.4,8.4-6,10.1l7.8,13.9H-42.1z M-52.6,68.6h3.8
						c4,0,6.1-1.7,6.1-5s-2.1-4.4-6.1-4.4h-3.8V68.6z"/>
				</g>
				<g>
					<path fill="none" stroke="#979798" stroke-width="12" stroke-linecap="round" stroke-linejoin="round" d="M-48.2,52.6
						c7.5,0,13.7,2.5,13.7,11c0,5.1-2.4,8.4-6,10.1l7.8,13.9h-9.4l-6.4-12.3h-4v12.3H-61v-35H-48.2 M-52.6,68.6h3.8
						c4,0,6.1-1.7,6.1-5c0-3.3-2.1-4.4-6.1-4.4h-3.8V68.6 M-48.2,51.6H-61h-1v1v35v1h1h8.4h1v-1V76.3h2.4l6.2,11.8l0.3,0.5h0.6h9.4
						h1.7l-0.8-1.5l-7.3-13c2.8-1.6,5.6-4.6,5.6-10.5C-33.5,58.1-36,51.6-48.2,51.6L-48.2,51.6z M-51.6,60.2h2.8
						c4.3,0,5.1,1.3,5.1,3.4c0,1,0,4-5.1,4h-2.8V60.2L-51.6,60.2z"/>
				</g>
			</g>
			<g>
				<g>
					<path fill="none" stroke="#979798" stroke-width="12" stroke-linecap="round" stroke-linejoin="round" d="M-29.3,69.9
						c0-11.5,6.5-18,16-18c9.5,0,16,6.5,16,18c0,11.5-6.5,18.3-16,18.3C-22.8,88.3-29.3,81.4-29.3,69.9z M-5.8,69.9
						c0-6.8-2.9-10.8-7.5-10.8c-4.6,0-7.4,4-7.4,10.8c0,6.8,2.8,11.1,7.4,11.1C-8.7,81-5.8,76.7-5.8,69.9z"/>
				</g>
				<g>
					<path fill="none" stroke="#979798" stroke-width="12" stroke-linecap="round" stroke-linejoin="round" d="M-13.3,52
						c9.5,0,16,6.5,16,18c0,11.5-6.5,18.3-16,18.3c-9.5,0-16-6.9-16-18.3C-29.3,58.4-22.8,52-13.3,52 M-13.3,81
						c4.6,0,7.5-4.3,7.5-11.1c0-6.8-2.9-10.8-7.5-10.8c-4.6,0-7.4,4-7.4,10.8C-20.7,76.7-17.9,81-13.3,81 M-13.3,51
						c-10.5,0-17,7.3-17,19c0,11.7,6.7,19.3,17,19.3c10.3,0,17-7.6,17-19.3C3.8,58.2-2.8,51-13.3,51L-13.3,51z M-13.3,80
						c-4,0-6.4-3.9-6.4-10.1c0-6.1,2.4-9.8,6.4-9.8c4.1,0,6.5,3.7,6.5,9.8C-6.8,76.1-9.3,80-13.3,80L-13.3,80z"/>
				</g>
			</g>
			<g>
				<g>
					<path fill="none" stroke="#979798" stroke-width="12" stroke-linecap="round" stroke-linejoin="round" d="M9.3,52.6h12.2
						c7.2,0,13,1.9,13,8.7c0,3.1-1.7,6.5-4.6,7.6V69c3.5,0.9,6.2,3.6,6.2,8.2c0,7.1-6.1,10.3-13.7,10.3H9.3V52.6z M21.2,66.5
						c3.6,0,5.2-1.6,5.2-4c0-2.5-1.6-3.5-5.2-3.5h-3.5v7.5H21.2z M21.9,81.2c4,0,6.1-1.5,6.1-4.5c0-2.9-2-4-6.1-4h-4.2v8.5H21.9z"/>
				</g>
				<g>
					<path fill="none" stroke="#979798" stroke-width="12" stroke-linecap="round" stroke-linejoin="round" d="M21.5,52.6
						c7.2,0,13,1.9,13,8.7c0,3.1-1.7,6.5-4.6,7.6V69c3.5,0.9,6.2,3.6,6.2,8.2c0,7.1-6.1,10.3-13.7,10.3H9.3v-35H21.5 M17.7,66.5h3.5
						c3.6,0,5.2-1.6,5.2-4c0-2.5-1.6-3.5-5.2-3.5h-3.5V66.5 M17.7,81.2h4.2c4,0,6.1-1.5,6.1-4.5c0-2.9-2-4-6.1-4h-4.2V81.2
						 M21.5,51.6H9.3h-1v1v35v1h1h13.2c9.1,0,14.7-4.3,14.7-11.3c0-4-1.8-7-5.1-8.5c2.2-1.8,3.4-4.9,3.4-7.5
						C35.5,54.9,30.8,51.6,21.5,51.6L21.5,51.6z M18.7,60h2.5c3.9,0,4.2,1.2,4.2,2.5c0,0.7,0,3-4.2,3h-2.5V60L18.7,60z M18.7,73.7
						h3.2c4.7,0,5.1,1.5,5.1,3c0,1.6-0.6,3.5-5.1,3.5h-3.2V73.7L18.7,73.7z"/>
				</g>
			</g>
			<g>
				<g>
					<path fill="none" stroke="#979798" stroke-width="12" stroke-linecap="round" stroke-linejoin="round" d="M85.7,59.6h-9.5v-7
						h27.4v7h-9.5v28h-8.4V59.6z"/>
				</g>
				<g>
					<path fill="none" stroke="#979798" stroke-width="12" stroke-linecap="round" stroke-linejoin="round" d="M103.6,52.6v7h-9.5
						v28h-8.4v-28h-9.5v-7H103.6 M104.6,51.6h-1H76.2h-1v1v7v1h1h8.5v27v1h1h8.4h1v-1v-27h8.5h1v-1v-7V51.6L104.6,51.6z"/>
				</g>
			</g>
			<g>
				<g>
					<path fill="none" stroke="#979798" stroke-width="12" stroke-linecap="round" stroke-linejoin="round" d="M146,52.6h9.1
						l5.5,15.1c0.7,2,1.3,4.2,1.9,6.4h0.2c0.7-2.2,1.3-4.4,1.9-6.4l5.4-15.1h9.1v35h-7.7v-12c0-3.5,0.7-8.7,1.1-12.1h-0.2l-2.9,8.4
						l-4.7,12.8h-4.6l-4.7-12.8l-2.8-8.4h-0.2c0.4,3.4,1.1,8.7,1.1,12.1v12H146V52.6z"/>
				</g>
				<g>
					<path fill="none" stroke="#979798" stroke-width="12" stroke-linecap="round" stroke-linejoin="round" d="M179.2,52.6v35h-7.7
						v-12c0-3.5,0.7-8.7,1.1-12.1h-0.2l-2.9,8.4l-4.7,12.8h-4.6l-4.7-12.8l-2.8-8.4h-0.2c0.4,3.4,1.1,8.7,1.1,12.1v12H146v-35h9.1
						l5.5,15.1c0.7,2,1.3,4.2,1.9,6.4h0.2c0.7-2.2,1.3-4.4,1.9-6.4l5.4-15.1H179.2 M180.2,51.6h-1H170h-0.7l-0.2,0.7l-5.4,15.1
						c-0.3,1-0.6,2.1-0.9,3.1c0,0.2-0.1,0.3-0.1,0.5c-0.3-1.2-0.7-2.5-1.1-3.6L156,52.3l-0.2-0.7H155H146h-1v1v35v1h1h7.5h1v-1v-12
						c0-1.2-0.1-2.5-0.2-3.9l0.2,0.5l4.8,12.8l0.2,0.7h0.7h4.6h0.7l0.2-0.7l4.7-12.8l0.3-0.8c-0.1,1.5-0.2,3-0.2,4.3v12v1h1h7.7h1
						v-1v-35V51.6L180.2,51.6z"/>
				</g>
			</g>
			<g>
				<g>
					<path fill="none" stroke="#979798" stroke-width="12" stroke-linecap="round" stroke-linejoin="round" d="M185.6,69.9
						c0-11.5,6.5-18,16-18c9.5,0,16,6.5,16,18c0,11.5-6.5,18.3-16,18.3C192.1,88.3,185.6,81.4,185.6,69.9z M209.1,69.9
						c0-6.8-2.9-10.8-7.5-10.8c-4.6,0-7.4,4-7.4,10.8c0,6.8,2.8,11.1,7.4,11.1C206.3,81,209.1,76.7,209.1,69.9z"/>
				</g>
				<g>
					<path fill="none" stroke="#979798" stroke-width="12" stroke-linecap="round" stroke-linejoin="round" d="M201.6,52
						c9.5,0,16,6.5,16,18c0,11.5-6.5,18.3-16,18.3c-9.5,0-16-6.9-16-18.3C185.6,58.4,192.1,52,201.6,52 M201.6,81
						c4.6,0,7.5-4.3,7.5-11.1c0-6.8-2.9-10.8-7.5-10.8c-4.6,0-7.4,4-7.4,10.8C194.2,76.7,197,81,201.6,81 M201.6,51
						c-10.5,0-17,7.3-17,19c0,11.7,6.7,19.3,17,19.3s17-7.6,17-19.3C218.7,58.2,212.2,51,201.6,51L201.6,51z M201.6,80
						c-4,0-6.4-3.9-6.4-10.1c0-6.1,2.4-9.8,6.4-9.8c4.1,0,6.5,3.7,6.5,9.8C208.1,76.1,205.6,80,201.6,80L201.6,80z"/>
				</g>
			</g>
			<g>
				<path fill="none" stroke="#979798" stroke-width="12" stroke-linecap="round" stroke-linejoin="round" d="M-155.9-61.8
					C-172.3-60-185-46.2-185-29.3s12.7,30.7,29.1,32.5V-61.8z"/>
				<g>
					<path fill="none" stroke="#979798" stroke-width="12" stroke-linecap="round" stroke-linejoin="round" d="M-155.9-61.8v65
						C-172.3,1.4-185-12.5-185-29.3C-185-46.2-172.3-60-155.9-61.8 M-154.9-62.9l-1.1,0.1c-17.1,1.9-30,16.3-30,33.5
						c0,17.2,12.9,31.6,30,33.5l1.1,0.1V3.2v-65V-62.9L-154.9-62.9z"/>
				</g>
			</g>
			<g>
				<path fill="none" stroke="#979798" stroke-width="12" stroke-linecap="round" stroke-linejoin="round" d="M-54.1-61.8
					c16.4,1.8,29.1,15.7,29.1,32.5S-37.8,1.4-54.1,3.2V-61.8z"/>
				<g>
					<path fill="none" stroke="#979798" stroke-width="12" stroke-linecap="round" stroke-linejoin="round" d="M-54.1-61.8
						c16.4,1.8,29.1,15.7,29.1,32.5c0,16.8-12.7,30.7-29.1,32.5V-61.8 M-55.1-62.9v1.1v65v1.1l1.1-0.1c17.1-1.9,30-16.3,30-33.5
						c0-17.2-12.9-31.6-30-33.5L-55.1-62.9L-55.1-62.9z"/>
				</g>
			</g>
			<g>
				
					<circle fill="none" stroke="#979798" stroke-width="12" stroke-linecap="round" stroke-linejoin="round" cx="-106.1" cy="-94.1" r="17.6"/>
				<g>
					<path fill="none" stroke="#979798" stroke-width="12" stroke-linecap="round" stroke-linejoin="round" d="M-106.1-111.7
						c9.7,0,17.6,7.9,17.6,17.6c0,9.7-7.9,17.6-17.6,17.6s-17.6-7.9-17.6-17.6C-123.6-103.8-115.8-111.7-106.1-111.7 M-106.1-112.7
						c-10.2,0-18.6,8.3-18.6,18.6c0,10.2,8.3,18.6,18.6,18.6s18.6-8.3,18.6-18.6C-87.5-104.4-95.8-112.7-106.1-112.7L-106.1-112.7z"
						/>
				</g>
			</g>
			<g>
				
					<rect x="-123.6" y="-82.6" fill="none" stroke="#979798" stroke-width="12" stroke-linecap="round" stroke-linejoin="round" width="36.4" height="6.1"/>
				<g>
					<path fill="none" stroke="#979798" stroke-width="12" stroke-linecap="round" stroke-linejoin="round" d="M-87.3-82.6v6.1
						h-36.4v-6.1H-87.3 M-86.3-83.6h-1h-36.4h-1v1v6.1v1h1h36.4h1v-1v-6.1V-83.6L-86.3-83.6z"/>
				</g>
			</g>
			<g>
				
					<rect x="-202.8" y="50.6" transform="matrix(0.746 -0.666 0.666 0.746 -83.9163 -108.9312)" fill="none" stroke="#979798" stroke-width="12" stroke-linecap="round" stroke-linejoin="round" width="36" height="9.8"/>
				<g>
					<path fill="none" stroke="#979798" stroke-width="12" stroke-linecap="round" stroke-linejoin="round" d="M-174.6,39.9l6.5,7.3
						l-26.9,24l-6.5-7.3L-174.6,39.9 M-174.5,38.5l-0.7,0.7l-26.9,24l-0.7,0.7l0.7,0.7l6.5,7.3l0.7,0.7l0.7-0.7l26.9-24l0.7-0.7
						l-0.7-0.7l-6.5-7.3L-174.5,38.5L-174.5,38.5z"/>
				</g>
			</g>
			<g>
				
					<rect x="-183.8" y="60.4" transform="matrix(0.5399 -0.8417 0.8417 0.5399 -133.6888 -116.5921)" fill="none" stroke="#979798" stroke-width="12" stroke-linecap="round" stroke-linejoin="round" width="20.6" height="7.3"/>
				<g>
					<path fill="none" stroke="#979798" stroke-width="12" stroke-linecap="round" stroke-linejoin="round" d="M-171,53.4l6.1,3.9
						L-176,74.6l-6.1-3.9L-171,53.4 M-171.3,52l-0.5,0.8L-183,70.2l-0.5,0.8l0.8,0.5l6.1,3.9l0.8,0.5l0.5-0.8l11.1-17.3l0.5-0.8
						l-0.8-0.5l-6.1-3.9L-171.3,52L-171.3,52z"/>
				</g>
			</g>
			<g>
				
					<rect x="-171.2" y="65.3" transform="matrix(0.2444 -0.9697 0.9697 0.2444 -188.3774 -103.9309)" fill="none" stroke="#979798" stroke-width="12" stroke-linecap="round" stroke-linejoin="round" width="20.6" height="7.3"/>
				<g>
					<path fill="none" stroke="#979798" stroke-width="12" stroke-linecap="round" stroke-linejoin="round" d="M-161.9,58l7.1,1.8
						l-5,20l-7.1-1.8L-161.9,58 M-162.6,56.8l-0.2,1l-5,20l-0.2,1l1,0.2l7.1,1.8l1,0.2l0.2-1l5-20l0.2-1l-1-0.2l-7.1-1.8
						L-162.6,56.8L-162.6,56.8z"/>
				</g>
			</g>
			<g>
				
					<rect x="-152.4" y="59.8" fill="none" stroke="#979798" stroke-width="12" stroke-linecap="round" stroke-linejoin="round" width="7.3" height="20.6"/>
				<g>
					<path fill="none" stroke="#979798" stroke-width="12" stroke-linecap="round" stroke-linejoin="round" d="M-145.1,59.8v20.6
						h-7.3V59.8H-145.1 M-144.1,58.8h-1h-7.3h-1v1v20.6v1h1h7.3h1v-1V59.8V58.8L-144.1,58.8z"/>
				</g>
			</g>
			<g>
				
					<rect x="-141" y="59.8" fill="none" stroke="#979798" stroke-width="12" stroke-linecap="round" stroke-linejoin="round" width="7.3" height="20.6"/>
				<g>
					<path fill="none" stroke="#979798" stroke-width="12" stroke-linecap="round" stroke-linejoin="round" d="M-133.7,59.8v20.6
						h-7.3V59.8H-133.7 M-132.7,58.8h-1h-7.3h-1v1v20.6v1h1h7.3h1v-1V59.8V58.8L-132.7,58.8z"/>
				</g>
			</g>
			<g>
				
					<rect x="-130" y="59.8" fill="none" stroke="#979798" stroke-width="12" stroke-linecap="round" stroke-linejoin="round" width="7.3" height="20.6"/>
				<g>
					<path fill="none" stroke="#979798" stroke-width="12" stroke-linecap="round" stroke-linejoin="round" d="M-122.7,59.8v20.6
						h-7.3V59.8H-122.7 M-121.7,58.8h-1h-7.3h-1v1v20.6v1h1h7.3h1v-1V59.8V58.8L-121.7,58.8z"/>
				</g>
			</g>
			<g>
				<path fill="none" stroke="#979798" stroke-width="12" stroke-linecap="round" stroke-linejoin="round" d="M-202.2,5.4
					c5.5,6.5,6.1,15.5,2.2,22.5c4.4-0.8,9.2,0.7,12.3,4.4c2.3,2.6,3.3,5.9,3.2,9.1c10.4-14.6,10-35-2.2-49.2
					c-13.7-15.9-37.2-18.5-53.9-6.3l11.2,17C-221.2-3.7-209.2-2.7-202.2,5.4z"/>
				<path fill="none" stroke="#979798" stroke-width="12" stroke-linecap="round" stroke-linejoin="round" d="M-217.2-21.8
					c11.3,0,22.4,4.7,30.4,13.9c12.2,14.2,12.7,34.6,2.2,49.2c0.1-3.2-0.9-6.5-3.2-9.1c-2.6-3-6.3-4.6-10-4.6
					c-0.8,0-1.6,0.1-2.4,0.2c4-7,3.4-16-2.2-22.5c-3.9-4.5-9.4-6.8-14.9-6.8c-4.3,0-8.7,1.4-12.3,4.4l-11.2-17
					C-233.6-19.2-225.4-21.8-217.2-21.8 M-217.2-22.8L-217.2-22.8c-8.7,0-17.1,2.7-24.1,7.8l-0.8,0.6l0.5,0.8l11.2,17l0.6,0.9
					l0.9-0.7c3.3-2.7,7.5-4.1,11.7-4.1c5.4,0,10.6,2.4,14.1,6.5c5.1,5.9,5.9,14.5,2.1,21.3l-1.1,1.9l2.1-0.4
					c0.7-0.1,1.4-0.2,2.2-0.2c3.6,0,6.9,1.5,9.2,4.2c2,2.3,3,5.3,2.9,8.4l-0.1,3.4l2-2.7c11-15.4,10-36.1-2.3-50.5
					C-193.8-17.5-205.2-22.8-217.2-22.8L-217.2-22.8z"/>
			</g>
			<g>
				<path fill="none" stroke="#979798" stroke-width="12" stroke-linecap="round" stroke-linejoin="round" d="M-190,34.2
					c-3.7-4.3-10.1-4.7-14.3-1.1l0,0c0,0,0,0,0,0c-8.2,7.1-20.7,6.1-27.7-2.1c-6.9-8.1-6.1-20.2,1.7-27.3l-15.1-13.6
					c-14.6,14.6-15.6,38.3-2,54.2c14.4,16.8,39.6,18.7,56.4,4.3c0,0,0,0,0,0C-186.8,44.9-186.4,38.5-190,34.2z"/>
				<path fill="none" stroke="#979798" stroke-width="12" stroke-linecap="round" stroke-linejoin="round" d="M-245.5-9.9l15.1,13.6
					c-7.8,7.1-8.6,19.2-1.7,27.3c3.9,4.5,9.4,6.9,14.9,6.9c4.5,0,9.1-1.6,12.8-4.7c0,0,0,0,0,0l0,0c1.9-1.6,4.3-2.4,6.6-2.4
					c2.9,0,5.7,1.2,7.7,3.5c3.7,4.3,3.2,10.7-1.1,14.3c0,0,0,0,0,0c-7.5,6.5-16.8,9.6-26,9.6c-11.3,0-22.5-4.7-30.4-13.9
					C-261.2,28.3-260.1,4.7-245.5-9.9 M-245.6-11.3l-0.7,0.7c-7.2,7.3-11.5,17-11.9,27.3c-0.4,10.4,3.1,20.4,9.8,28.3
					c7.8,9.1,19.1,14.3,31.1,14.3c9.8,0,19.2-3.5,26.7-9.9c2.3-1.9,3.6-4.7,3.9-7.6c0.2-3-0.7-5.9-2.7-8.1c-2.1-2.5-5.2-3.9-8.5-3.9
					c-2.3,0-4.6,0.7-6.5,2.1l0,0l-0.8,0.6l0,0l0,0c-3.4,2.9-7.7,4.5-12.1,4.5c-5.5,0-10.6-2.4-14.2-6.5c-6.6-7.7-5.9-19.1,1.6-25.9
					l0.8-0.7l-0.8-0.7l-15.1-13.6L-245.6-11.3L-245.6-11.3z"/>
			</g>
			
				<circle fill="none" stroke="#979798" stroke-width="12" stroke-linecap="round" stroke-linejoin="round" cx="-197.7" cy="40.9" r="3.8"/>
			<g>
				
					<rect x="330.1" y="37.5" transform="matrix(0.666 -0.746 0.746 0.666 70.487 268.4899)" fill="none" stroke="#979798" stroke-width="12" stroke-linecap="round" stroke-linejoin="round" width="9.8" height="36"/>
				<g>
					<path fill="none" stroke="#979798" stroke-width="12" stroke-linecap="round" stroke-linejoin="round" d="M324.9,39.9l26.9,24
						l-6.5,7.3l-26.9-24L324.9,39.9 M324.8,38.5l-0.7,0.7l-6.5,7.3l-0.7,0.7l0.7,0.7l26.9,24l0.7,0.7l0.7-0.7l6.5-7.3l0.7-0.7
						l-0.7-0.7l-26.9-24L324.8,38.5L324.8,38.5z"/>
				</g>
			</g>
			<g>
				
					<rect x="320.2" y="53.7" transform="matrix(0.8417 -0.5399 0.5399 0.8417 16.6979 184.949)" fill="none" stroke="#979798" stroke-width="12" stroke-linecap="round" stroke-linejoin="round" width="7.3" height="20.6"/>
				<g>
					<path fill="none" stroke="#979798" stroke-width="12" stroke-linecap="round" stroke-linejoin="round" d="M321.3,53.4
						l11.1,17.3l-6.1,3.9l-11.1-17.3L321.3,53.4 M321.6,52l-0.8,0.5l-6.1,3.9l-0.8,0.5l0.5,0.8l11.1,17.3L326,76l0.8-0.5l6.1-3.9
						l0.8-0.5l-0.5-0.8l-11.1-17.3L321.6,52L321.6,52z"/>
				</g>
			</g>
			<g>
				
					<rect x="307.5" y="58.6" transform="matrix(0.9697 -0.2444 0.2444 0.9697 -7.4046 78.1351)" fill="none" stroke="#979798" stroke-width="12" stroke-linecap="round" stroke-linejoin="round" width="7.3" height="20.6"/>
				<g>
					<path fill="none" stroke="#979798" stroke-width="12" stroke-linecap="round" stroke-linejoin="round" d="M312.2,58l5,20
						l-7.1,1.8l-5-20L312.2,58 M312.9,56.8l-1,0.2l-7.1,1.8l-1,0.2l0.2,1l5,20l0.2,1l1-0.2l7.1-1.8l1-0.2l-0.2-1l-5-20L312.9,56.8
						L312.9,56.8z"/>
				</g>
			</g>
			<g>
				
					<rect x="295.4" y="59.8" fill="none" stroke="#979798" stroke-width="12" stroke-linecap="round" stroke-linejoin="round" width="7.3" height="20.6"/>
				<g>
					<path fill="none" stroke="#979798" stroke-width="12" stroke-linecap="round" stroke-linejoin="round" d="M302.7,59.8v20.6
						h-7.3V59.8H302.7 M303.7,58.8h-1h-7.3h-1v1v20.6v1h1h7.3h1v-1V59.8V58.8L303.7,58.8z"/>
				</g>
			</g>
			<g>
				
					<rect x="284" y="59.8" fill="none" stroke="#979798" stroke-width="12" stroke-linecap="round" stroke-linejoin="round" width="7.3" height="20.6"/>
				<g>
					<path fill="none" stroke="#979798" stroke-width="12" stroke-linecap="round" stroke-linejoin="round" d="M291.3,59.8v20.6H284
						V59.8H291.3 M292.3,58.8h-1H284h-1v1v20.6v1h1h7.3h1v-1V59.8V58.8L292.3,58.8z"/>
				</g>
			</g>
			<g>
				
					<rect x="273" y="59.8" fill="none" stroke="#979798" stroke-width="12" stroke-linecap="round" stroke-linejoin="round" width="7.3" height="20.6"/>
				<g>
					<path fill="none" stroke="#979798" stroke-width="12" stroke-linecap="round" stroke-linejoin="round" d="M280.3,59.8v20.6H273
						V59.8H280.3 M281.3,58.8h-1H273h-1v1v20.6v1h1h7.3h1v-1V59.8V58.8L281.3,58.8z"/>
				</g>
			</g>
			<g>
				<path fill="none" stroke="#979798" stroke-width="12" stroke-linecap="round" stroke-linejoin="round" d="M321.7-2.2
					c-6.4,17-0.4,35.6,13.5,46c-0.9-3.9,0-8.2,2.8-11.5c2.5-2.9,6.1-4.5,9.6-4.6c-7-5.1-10.1-14.3-6.9-22.8
					c3.7-10,14.7-15.1,24.7-11.7l4.6-19.9C350.2-32.3,329.1-21.9,321.7-2.2z"/>
				<path fill="none" stroke="#979798" stroke-width="12" stroke-linecap="round" stroke-linejoin="round" d="M359.1-28.2
					c3.6,0,7.3,0.5,10.9,1.5l-4.6,19.9c-2.1-0.7-4.2-1-6.3-1c-8,0-15.4,4.9-18.4,12.8c-3.2,8.5-0.1,17.8,6.9,22.8
					c-3.6,0.1-7.1,1.6-9.6,4.6c-2.8,3.3-3.7,7.6-2.8,11.5c-13.9-10.4-19.9-29-13.5-46C327.7-18.3,342.9-28.2,359.1-28.2 M359.1-29.2
					c-17,0-32.4,10.7-38.4,26.6c-6.3,16.9-0.7,36.3,13.8,47.2l2.2,1.6l-0.6-2.6c-0.9-3.8,0.1-7.7,2.6-10.6c2.2-2.6,5.5-4.1,8.9-4.2
					l3-0.1l-2.4-1.7c-6.8-4.9-9.5-13.8-6.6-21.7c2.7-7.2,9.7-12.1,17.5-12.1c2,0,4.1,0.3,6,1l1,0.4l0.3-1.1l4.6-19.9l0.2-0.9
					l-0.9-0.3C366.7-28.7,362.9-29.2,359.1-29.2L359.1-29.2z"/>
			</g>
			<g>
				<path fill="none" stroke="#979798" stroke-width="12" stroke-linecap="round" stroke-linejoin="round" d="M406.6,3.1l-18,9.6
					c5.9,8.8,3.8,20.7-4.9,26.9c-8.8,6.3-21.1,4.2-27.4-4.6c0,0,0,0,0,0l0,0c-3.3-4.6-9.6-5.6-14.2-2.4c-4.6,3.3-5.6,9.6-2.4,14.2
					c0,0,0,0,0,0c12.8,18,37.8,22.2,55.8,9.4C412.6,43.9,417.2,20.8,406.6,3.1z"/>
				<path fill="none" stroke="#979798" stroke-width="12" stroke-linecap="round" stroke-linejoin="round" d="M406.6,3.1
					c10.6,17.7,6,40.9-11.1,53.1c-7,5-15.1,7.4-23.2,7.4c-12.5,0-24.8-5.8-32.6-16.8c0,0,0,0,0,0c-3.3-4.6-2.2-10.9,2.4-14.2
					c1.8-1.3,3.8-1.9,5.9-1.9c3.2,0,6.3,1.5,8.3,4.3l0,0c0,0,0,0,0,0c3.8,5.4,9.9,8.3,16,8.3c3.9,0,7.9-1.2,11.4-3.6
					c8.7-6.2,10.8-18.1,4.9-26.9L406.6,3.1 M407,1.7l-0.8,0.4l-18,9.6l-1,0.5l0.6,0.9c5.6,8.4,3.6,19.7-4.7,25.6
					c-3.2,2.3-6.9,3.5-10.8,3.5c-6,0-11.7-2.9-15.2-7.8l0,0l0,0l-0.6-0.8l0,0c-2.1-2.5-5.2-3.9-8.5-3.9c-2.3,0-4.6,0.7-6.5,2.1
					c-5,3.6-6.2,10.5-2.6,15.6c7.7,10.8,20.2,17.2,33.4,17.2c8.5,0,16.8-2.6,23.7-7.6c8.5-6,14.3-14.9,16.4-25.1
					c2.1-10.1,0.3-20.5-5-29.3L407,1.7L407,1.7z"/>
			</g>
			
				<circle fill="none" stroke="#979798" stroke-width="12" stroke-linecap="round" stroke-linejoin="round" cx="348" cy="40.9" r="3.8"/>
			<g>
				
					<circle fill="none" stroke="#979798" stroke-width="12" stroke-linecap="round" stroke-linejoin="round" cx="56.2" cy="69.9" r="17.2"/>
				<path fill="none" stroke="#979798" stroke-width="12" stroke-linecap="round" stroke-linejoin="round" d="M56.2,52.7
					c9.5,0,17.2,7.7,17.2,17.2s-7.7,17.2-17.2,17.2S39,79.4,39,69.9S46.7,52.7,56.2,52.7 M56.2,51.7c-10,0-18.2,8.2-18.2,18.2
					s8.2,18.2,18.2,18.2s18.2-8.2,18.2-18.2S66.2,51.7,56.2,51.7L56.2,51.7z"/>
			</g>
			<g>
				
					<circle fill="none" stroke="#979798" stroke-width="12" stroke-linecap="round" stroke-linejoin="round" cx="56.2" cy="69.9" r="10.9"/>
				<g>
					<path fill="none" stroke="#979798" stroke-width="12" stroke-linecap="round" stroke-linejoin="round" d="M56.2,59
						c6,0,10.9,4.9,10.9,10.9s-4.9,10.9-10.9,10.9c-6,0-10.9-4.9-10.9-10.9S50.2,59,56.2,59 M56.2,58c-6.5,0-11.9,5.3-11.9,11.9
						s5.3,11.9,11.9,11.9S68,76.4,68,69.9S62.7,58,56.2,58L56.2,58z"/>
				</g>
			</g>
			<g>
				
					<circle fill="none" stroke="#979798" stroke-width="12" stroke-linecap="round" stroke-linejoin="round" cx="56.2" cy="69.9" r="5.3"/>
				<g>
					<path fill="none" stroke="#979798" stroke-width="12" stroke-linecap="round" stroke-linejoin="round" d="M56.2,64.5
						c3,0,5.3,2.4,5.3,5.3s-2.4,5.3-5.3,5.3c-3,0-5.3-2.4-5.3-5.3S53.2,64.5,56.2,64.5 M56.2,63.5c-3.5,0-6.3,2.8-6.3,6.3
						s2.8,6.3,6.3,6.3s6.3-2.8,6.3-6.3S59.7,63.5,56.2,63.5L56.2,63.5z"/>
				</g>
			</g>
			<g>
				<g>
					
						<circle fill="none" stroke="#979798" stroke-width="12" stroke-linecap="round" stroke-linejoin="round" cx="123.5" cy="69.9" r="17.2"/>
					<path fill="none" stroke="#979798" stroke-width="12" stroke-linecap="round" stroke-linejoin="round" d="M123.5,52.7
						c9.5,0,17.2,7.7,17.2,17.2s-7.7,17.2-17.2,17.2s-17.2-7.7-17.2-17.2S114,52.7,123.5,52.7 M123.5,51.7c-10,0-18.2,8.2-18.2,18.2
						s8.2,18.2,18.2,18.2s18.2-8.2,18.2-18.2S133.5,51.7,123.5,51.7L123.5,51.7z"/>
				</g>
				<g>
					
						<circle fill="none" stroke="#979798" stroke-width="12" stroke-linecap="round" stroke-linejoin="round" cx="123.5" cy="69.9" r="10.9"/>
					<g>
						<path fill="none" stroke="#979798" stroke-width="12" stroke-linecap="round" stroke-linejoin="round" d="M123.5,59
							c6,0,10.9,4.9,10.9,10.9s-4.9,10.9-10.9,10.9c-6,0-10.9-4.9-10.9-10.9S117.5,59,123.5,59 M123.5,58c-6.5,0-11.9,5.3-11.9,11.9
							s5.3,11.9,11.9,11.9c6.5,0,11.9-5.3,11.9-11.9S130,58,123.5,58L123.5,58z"/>
					</g>
				</g>
				<g>
					
						<circle fill="none" stroke="#979798" stroke-width="12" stroke-linecap="round" stroke-linejoin="round" cx="123.5" cy="69.9" r="5.3"/>
					<g>
						<path fill="none" stroke="#979798" stroke-width="12" stroke-linecap="round" stroke-linejoin="round" d="M123.5,64.5
							c3,0,5.3,2.4,5.3,5.3s-2.4,5.3-5.3,5.3s-5.3-2.4-5.3-5.3S120.5,64.5,123.5,64.5 M123.5,63.5c-3.5,0-6.3,2.8-6.3,6.3
							s2.8,6.3,6.3,6.3s6.3-2.8,6.3-6.3S127,63.5,123.5,63.5L123.5,63.5z"/>
					</g>
				</g>
			</g>
			<g>
				<path fill="none" stroke="#979798" stroke-width="12" stroke-linecap="round" stroke-linejoin="round" d="M346.3-93.5
					c-19.7,3.2-22.3,5.8-25.5,25.5c-3.2-19.7-5.8-22.3-25.5-25.5c19.7-3.2,22.3-5.8,25.5-25.5C324-99.3,326.6-96.7,346.3-93.5z"/>
				<path fill="none" stroke="#979798" stroke-width="12" stroke-linecap="round" stroke-linejoin="round" d="M346.3-93.5
					c-19.7,3.2-22.3,5.8-25.5,25.5c-3.2-19.7-5.8-22.3-25.5-25.5c19.7-3.2,22.3-5.8,25.5-25.5C324-99.3,326.6-96.7,346.3-93.5z"/>
			</g>
			<g>
				<path fill="none" stroke="#979798" stroke-width="12" stroke-linecap="round" stroke-linejoin="round" d="M358.1-50
					c-11.5,1.9-13.1,3.4-14.9,14.9c-1.9-11.5-3.4-13.1-14.9-14.9c11.5-1.9,13.1-3.4,14.9-14.9C345.1-53.4,346.6-51.9,358.1-50z"/>
				<path fill="none" stroke="#979798" stroke-width="12" stroke-linecap="round" stroke-linejoin="round" d="M358.1-50
					c-11.5,1.9-13.1,3.4-14.9,14.9c-1.9-11.5-3.4-13.1-14.9-14.9c11.5-1.9,13.1-3.4,14.9-14.9C345.1-53.4,346.6-51.9,358.1-50z"/>
			</g>
			<g>
				<path fill="none" stroke="#979798" stroke-width="12" stroke-linecap="round" stroke-linejoin="round" d="M393.3-79.2
					c-16.2,2.6-18.4,4.8-21,21c-2.6-16.2-4.8-18.4-21-21c16.2-2.6,18.4-4.8,21-21C374.9-83.9,377.1-81.8,393.3-79.2z"/>
				<path fill="none" stroke="#979798" stroke-width="12" stroke-linecap="round" stroke-linejoin="round" d="M393.3-79.2
					c-16.2,2.6-18.4,4.8-21,21c-2.6-16.2-4.8-18.4-21-21c16.2-2.6,18.4-4.8,21-21C374.9-83.9,377.1-81.8,393.3-79.2z"/>
			</g>
			<g>
				<path fill="none" stroke="#979798" stroke-width="12" stroke-linecap="round" stroke-linejoin="round" d="M176.9-12.7
					l-45.8-19.1c-2.3-1-3.4-3.6-2.5-6l0,0c1-2.3,3.6-3.4,6-2.5l45.8,19.1c2.3,1,3.4,3.6,2.5,6v0C181.9-12.8,179.2-11.7,176.9-12.7z"
					/>
				<g>
					<path fill="none" stroke="#979798" stroke-width="12" stroke-linecap="round" stroke-linejoin="round" d="M132.9-40.6
						c0.6,0,1.2,0.1,1.8,0.4l45.8,19.1c2.3,1,3.4,3.6,2.5,6h0c-0.7,1.8-2.4,2.8-4.2,2.8c-0.6,0-1.2-0.1-1.8-0.4l-45.8-19.1
						c-2.3-1-3.4-3.6-2.5-6C129.4-39.6,131.1-40.6,132.9-40.6 M132.9-41.6L132.9-41.6c-2.3,0-4.3,1.3-5.1,3.4
						c-0.6,1.4-0.6,2.9,0,4.3c0.6,1.4,1.6,2.4,3,3l45.8,19.1c0.7,0.3,1.4,0.4,2.1,0.4c2.3,0,4.3-1.3,5.1-3.4c1.2-2.8-0.2-6.1-3-7.3
						L135-41.2C134.4-41.5,133.6-41.6,132.9-41.6L132.9-41.6z"/>
				</g>
			</g>
			<g>
				
					<circle fill="none" stroke="#979798" stroke-width="12" stroke-linecap="round" stroke-linejoin="round" cx="136.7" cy="-34.3" r="12.4"/>
				<path fill="none" stroke="#979798" stroke-width="12" stroke-linecap="round" stroke-linejoin="round" d="M136.7-46.6
					c6.8,0,12.4,5.5,12.4,12.4s-5.5,12.4-12.4,12.4c-6.8,0-12.4-5.5-12.4-12.4S129.9-46.6,136.7-46.6 M136.7-47.6
					c-7.4,0-13.4,6-13.4,13.4c0,7.4,6,13.4,13.4,13.4c7.4,0,13.4-6,13.4-13.4C150.1-41.6,144.1-47.6,136.7-47.6L136.7-47.6z"/>
			</g>
			<g>
				
					<circle fill="none" stroke="#979798" stroke-width="12" stroke-linecap="round" stroke-linejoin="round" cx="136.7" cy="-34.3" r="8.8"/>
				
					<circle fill="none" stroke="#979798" stroke-width="12" stroke-linecap="round" stroke-linejoin="round" cx="136.7" cy="-34.3" r="8.8"/>
			</g>
			
				<circle fill="none" stroke="#979798" stroke-width="12" stroke-linecap="round" stroke-linejoin="round" cx="68.8" cy="-70.5" r="10.4"/>
			
				<circle fill="none" stroke="#979798" stroke-width="12" stroke-linecap="round" stroke-linejoin="round" cx="88.4" cy="-79.2" r="10.4"/>
		</g>
	</g>
	<g>
		<g display="inline">
			<g>
				<g>
					<path fill="#939496" d="M-151.4,13.6c0,0,0.4-11.4,0.4-17.9v-57.8c0-3.8,0-9.3-0.2-13c4.9,0.1,10.2,0.2,13.7,0.2h66.3
						c3.2,0,7.7,0,12.5-0.1c-0.2,3.9-0.2,8.8-0.2,12.8v58c0,5.1,0.2,17.7,0.2,17.7H-151.4z M-131.7-56.4v50.3h53.2v-50.3H-131.7z"/>
				</g>
			</g>
			<g>
				<path fill="#939496" d="M22.3-31.2C16.6-20.5,5.7-4.7-0.6,2.2L-16.2-8.4c8-7.7,17.1-20.2,22.1-30.5L22.3-31.2z"/>
			</g>
			<g>
				<path fill="#939496" d="M50-47.3v54c0,7.2-4.5,12.1-13.7,12.1c-7.1,0-14-0.2-20.7-1.1L13.9,0c5,1,10.1,1.3,13,1.3c3,0,4-1,4.2-4
					c0.1-3.3,0.1-38.3,0.1-44.6H2.6c-3.6,0-8.8,0.1-12.2,0.5v-18.9c3.7,0.5,8.6,1,12.2,1h28.5v-8c0-3.3-0.6-9.2-1.1-11.4h21.3
					C51-82.5,50-75.9,50-72.6v7.8h25.5c3.7,0,9.5-0.4,12.8-0.8v18.8c-4-0.4-9.3-0.5-12.7-0.5H50z"/>
			</g>
			<g>
				<path fill="#939496" d="M74.2-39.5c5.9,7.6,15.4,22.7,20.2,31.4L77.5,1.2c-5.3-10.7-13.5-24.8-19-32.1L74.2-39.5z"/>
			</g>
			<g>
				<g>
					<path fill="#939496" d="M136.8-1c0,3.2,0.7,12.6,1.3,17.9h-22.6C116.4,11.8,117,3.9,117-1v-67.9c0-4.8-0.5-10.9-1.4-15.4H138
						c-0.5,4.5-1.2,9.7-1.2,15.4V-1z"/>
				</g>
			</g>
			<g>
				<g>
					<path fill="#939496" d="M247.1-10.7c0,6.8,3.9,8.4,12.7,8.4C270-2.3,280.9-3,290.1-4l-1.3,19.6c-6.9,0.4-21.5,0.7-32.6,0.7
						c-23.9,0-29-8.1-29-21.4v-20.7h-17.4c-3.6,0-10.2,0.4-14,0.6v-18.8c3.4,0.2,10.1,0.7,14,0.7h17.4v-17.5h-11.5
						c-4.4,0-8.3,0.1-12,0.4v-17.8c3.7,0.2,7.6,0.6,12,0.6h57.6c4,0,8.3-0.2,11.2-0.6v17.8c-3.2-0.1-6.8-0.4-11.2-0.4h-26.3v17.5
						h33.5c2.5,0,9.2-0.4,12.5-0.6l0.1,18.4c-3.6-0.5-9.5-0.4-12.1-0.4h-34V-10.7z"/>
				</g>
			</g>
			<g>
				<g>
					<path fill="#939496" d="M-42.1,86l-6.4-12.3h-4V86H-61V51h12.8c7.5,0,13.7,2.5,13.7,11c0,5.1-2.4,8.4-6,10.1l7.8,13.9H-42.1z
						 M-52.6,67h3.8c4,0,6.1-1.7,6.1-5c0-3.3-2.1-4.4-6.1-4.4h-3.8V67z"/>
				</g>
			</g>
			<g>
				<g>
					<path fill="#939496" d="M-29.3,68.3c0-11.5,6.5-18,16-18c9.5,0,16,6.5,16,18c0,11.5-6.5,18.3-16,18.3
						C-22.8,86.6-29.3,79.8-29.3,68.3z M-5.8,68.3c0-6.8-2.9-10.8-7.5-10.8c-4.6,0-7.4,4-7.4,10.8c0,6.8,2.8,11.1,7.4,11.1
						C-8.7,79.4-5.8,75.1-5.8,68.3z"/>
				</g>
			</g>
			<g>
				<g>
					<path fill="#939496" d="M9.3,51h12.2c7.2,0,13,1.9,13,8.7c0,3.1-1.7,6.5-4.6,7.6v0.2c3.5,0.9,6.2,3.6,6.2,8.2
						c0,7.1-6.1,10.3-13.7,10.3H9.3V51z M21.2,64.9c3.6,0,5.2-1.6,5.2-4c0-2.5-1.6-3.5-5.2-3.5h-3.5v7.5H21.2z M21.9,79.5
						c4,0,6.1-1.5,6.1-4.5c0-2.9-2-4-6.1-4h-4.2v8.5H21.9z"/>
				</g>
			</g>
			<g>
				<g>
					<path fill="#939496" d="M85.7,58h-9.5v-7h27.4v7h-9.5v28h-8.4V58z"/>
				</g>
			</g>
			<g>
				<g>
					<path fill="#939496" d="M146,51h9.1l5.5,15.1c0.7,2,1.3,4.2,1.9,6.4h0.2c0.7-2.2,1.3-4.4,1.9-6.4L170,51h9.1v35h-7.7V74
						c0-3.5,0.7-8.7,1.1-12.1h-0.2l-2.9,8.4L164.8,83h-4.6l-4.7-12.8l-2.8-8.4h-0.2c0.4,3.4,1.1,8.7,1.1,12.1v12H146V51z"/>
				</g>
			</g>
			<g>
				<g>
					<path fill="#939496" d="M185.6,68.3c0-11.5,6.5-18,16-18c9.5,0,16,6.5,16,18c0,11.5-6.5,18.3-16,18.3
						C192.1,86.6,185.6,79.8,185.6,68.3z M209.1,68.3c0-6.8-2.9-10.8-7.5-10.8c-4.6,0-7.4,4-7.4,10.8c0,6.8,2.8,11.1,7.4,11.1
						C206.3,79.4,209.1,75.1,209.1,68.3z"/>
				</g>
			</g>
			<g>
				<path fill="#F39D39" d="M-155.9-63.8C-172.3-62-185-48.2-185-31.3s12.7,30.7,29.1,32.5V-63.8z"/>
			</g>
			<g>
				<path fill="#F39D39" d="M-54.1-63.8c16.4,1.8,29.1,15.7,29.1,32.5S-37.8-0.6-54.1,1.2V-63.8z"/>
			</g>
			<g>
				<circle fill="#F5EB11" cx="-106.1" cy="-96.1" r="17.6"/>
			</g>
			<g>
				<rect x="-123.6" y="-84.6" fill="#D2D3D3" width="36.4" height="6.1"/>
			</g>
			<g>
				
					<rect x="-202.8" y="48.6" transform="matrix(0.746 -0.666 0.666 0.746 -82.5843 -109.4392)" fill="#CEA166" width="36" height="9.8"/>
			</g>
			<g>
				
					<rect x="-183.8" y="58.4" transform="matrix(0.5399 -0.8417 0.8417 0.5399 -132.0053 -117.5123)" fill="#D2D2D2" width="20.6" height="7.3"/>
			</g>
			<g>
				
					<rect x="-171.2" y="63.3" transform="matrix(0.2444 -0.9697 0.9697 0.2444 -186.438 -105.4421)" fill="#D2D2D2" width="20.6" height="7.3"/>
			</g>
			<g>
				<rect x="-152.4" y="57.8" fill="#D2D2D2" width="7.3" height="20.6"/>
			</g>
			<g>
				<rect x="-141" y="57.8" fill="#D2D2D2" width="7.3" height="20.6"/>
			</g>
			<g>
				<rect x="-130" y="57.8" fill="#D2D2D2" width="7.3" height="20.6"/>
			</g>
			<g>
				<path fill="#D2D2D2" d="M-202.2,3.4c5.5,6.5,6.1,15.5,2.2,22.5c4.4-0.8,9.2,0.7,12.3,4.4c2.3,2.6,3.3,5.9,3.2,9.1
					c10.4-14.6,10-35-2.2-49.2c-13.7-15.9-37.2-18.5-53.9-6.3l11.2,17C-221.2-5.7-209.2-4.7-202.2,3.4z"/>
			</g>
			<g>
				<path fill="#D2D2D2" d="M-190,32.2c-3.7-4.3-10.1-4.7-14.3-1.1l0,0c0,0,0,0,0,0c-8.2,7.1-20.7,6.1-27.7-2.1
					c-6.9-8.1-6.1-20.2,1.7-27.3l-15.1-13.6c-14.6,14.6-15.6,38.3-2,54.2c14.4,16.8,39.6,18.7,56.4,4.3c0,0,0,0,0,0
					C-186.8,42.9-186.4,36.5-190,32.2z"/>
			</g>
			<circle fill="#FFFFFF" cx="-197.7" cy="38.9" r="3.8"/>
			<g>
				
					<rect x="330.1" y="35.5" transform="matrix(0.666 -0.746 0.746 0.666 71.979 267.8218)" fill="#CEA166" width="9.8" height="36"/>
			</g>
			<g>
				
					<rect x="320.2" y="51.7" transform="matrix(0.8417 -0.5399 0.5399 0.8417 17.7778 184.6324)" fill="#D2D2D2" width="7.3" height="20.6"/>
			</g>
			<g>
				
					<rect x="307.5" y="56.6" transform="matrix(0.9697 -0.2444 0.2444 0.9697 -6.9158 78.0744)" fill="#D2D2D2" width="7.3" height="20.6"/>
			</g>
			<g>
				<rect x="295.4" y="57.8" fill="#D2D2D2" width="7.3" height="20.6"/>
			</g>
			<g>
				<rect x="284" y="57.8" fill="#D2D2D2" width="7.3" height="20.6"/>
			</g>
			<g>
				<rect x="273" y="57.8" fill="#D2D2D2" width="7.3" height="20.6"/>
			</g>
			<g>
				<path fill="#D2D2D2" d="M321.7-4.2c-6.4,17-0.4,35.6,13.5,46c-0.9-3.9,0-8.2,2.8-11.5c2.5-2.9,6.1-4.5,9.6-4.6
					c-7-5.1-10.1-14.3-6.9-22.8c3.7-10,14.7-15.1,24.7-11.7l4.6-19.9C350.2-34.3,329.1-23.9,321.7-4.2z"/>
			</g>
			<g>
				<path fill="#D2D2D2" d="M406.6,1.1l-18,9.6c5.9,8.8,3.8,20.7-4.9,26.9c-8.8,6.3-21.1,4.2-27.4-4.6c0,0,0,0,0,0l0,0
					c-3.3-4.6-9.6-5.6-14.2-2.4s-5.6,9.6-2.4,14.2c0,0,0,0,0,0c12.8,18,37.8,22.2,55.8,9.4C412.6,41.9,417.2,18.8,406.6,1.1z"/>
			</g>
			<circle fill="#FFFFFF" cx="348" cy="38.9" r="3.8"/>
			<g>
				<circle fill="#F5EB11" cx="56.2" cy="68.2" r="17.2"/>
			</g>
			<g>
				<circle fill="#FDD206" cx="56.2" cy="68.2" r="10.9"/>
			</g>
			<g>
				<circle fill="#FFFFFF" cx="56.2" cy="68.2" r="5.3"/>
			</g>
			<g>
				<g>
					<circle fill="#F5EB11" cx="123.5" cy="68.2" r="17.2"/>
				</g>
				<g>
					<circle fill="#FDD206" cx="123.5" cy="68.2" r="10.9"/>
				</g>
				<g>
					<circle fill="#FFFFFF" cx="123.5" cy="68.2" r="5.3"/>
				</g>
			</g>
			<g>
				<path fill="#FDD206" d="M346.3-95.5c-19.7,3.2-22.3,5.8-25.5,25.5c-3.2-19.7-5.8-22.3-25.5-25.5c19.7-3.2,22.3-5.8,25.5-25.5
					C324-101.3,326.6-98.7,346.3-95.5z"/>
			</g>
			<g>
				<path fill="#F39D39" d="M358.1-52c-11.5,1.9-13.1,3.4-14.9,14.9c-1.9-11.5-3.4-13.1-14.9-14.9c11.5-1.9,13.1-3.4,14.9-14.9
					C345.1-55.4,346.6-53.9,358.1-52z"/>
			</g>
			<g>
				<path fill="#F5EB11" d="M393.3-81.2c-16.2,2.6-18.4,4.8-21,21c-2.6-16.2-4.8-18.4-21-21c16.2-2.6,18.4-4.8,21-21
					C374.9-85.9,377.1-83.8,393.3-81.2z"/>
			</g>
			<g>
				<path fill="#333333" d="M176.9-14.7l-45.8-19.1c-2.3-1-3.4-3.6-2.5-6l0,0c1-2.3,3.6-3.4,6-2.5l45.8,19.1c2.3,1,3.4,3.6,2.5,6v0
					C181.9-14.8,179.2-13.7,176.9-14.7z"/>
			</g>
			<g>
				<circle fill="#CEA166" cx="136.7" cy="-36.3" r="12.4"/>
			</g>
			<g>
				<circle fill="#999AA0" cx="136.7" cy="-36.3" r="8.8"/>
			</g>
			<circle fill="#CEA166" cx="68.8" cy="-72.5" r="10.4"/>
			<circle fill="#CEA166" cx="88.4" cy="-81.2" r="10.4"/>
		</g>
		<g display="inline">
			<g>
				<g>
					<path fill="none" stroke="#FFFFFF" stroke-width="5" stroke-linecap="round" stroke-linejoin="round" d="M-151.4,13.6
						c0,0,0.4-11.4,0.4-17.9v-57.8c0-3.8,0-9.3-0.2-13c4.9,0.1,10.2,0.2,13.7,0.2h66.3c3.2,0,7.7,0,12.5-0.1
						c-0.2,3.9-0.2,8.8-0.2,12.8v58c0,5.1,0.2,17.7,0.2,17.7H-151.4z M-131.7-56.4v50.3h53.2v-50.3H-131.7z"/>
				</g>
				<g>
					<path fill="none" stroke="#FFFFFF" stroke-width="5" stroke-linecap="round" stroke-linejoin="round" d="M-151.3-75
						c4.9,0.1,10.2,0.2,13.7,0.2h66.3c3.2,0,7.7,0,12.5-0.1c-0.2,3.9-0.2,8.8-0.2,12.8v58c0,5.1,0.2,17.7,0.2,17.7h-92.6
						c0,0,0.4-11.4,0.4-17.9v-57.8C-151.1-65.9-151.1-71.3-151.3-75 M-131.7-6.1h53.2v-50.3h-53.2V-6.1 M-152.4-76l0.1,1.1
						c0.2,3.7,0.2,9.2,0.2,12.9v57.8c0,6.4-0.4,17.8-0.4,17.9l0,1h1h92.6h1l0-1c0-0.1-0.2-12.6-0.2-17.7v-58c0-4,0-8.9,0.2-12.8
						l0.1-1.1l-1.1,0c-4.7,0.1-9.2,0.1-12.5,0.1h-66.3c-3.4,0-8.8-0.1-13.6-0.2L-152.4-76L-152.4-76z M-130.7-55.4h51.2v48.3h-51.2
						V-55.4L-130.7-55.4z"/>
				</g>
			</g>
			<g>
				<path fill="none" stroke="#FFFFFF" stroke-width="5" stroke-linecap="round" stroke-linejoin="round" d="M22.3-31.2
					C16.6-20.5,5.7-4.7-0.6,2.2L-16.2-8.4c8-7.7,17.1-20.2,22.1-30.5L22.3-31.2z"/>
				<g>
					<path fill="none" stroke="#FFFFFF" stroke-width="5" stroke-linecap="round" stroke-linejoin="round" d="M5.9-38.9l16.4,7.7
						C16.6-20.5,5.7-4.7-0.6,2.2L-16.2-8.4C-8.2-16.1,1-28.6,5.9-38.9 M5.5-40.2L5-39.3C0.2-29.3-8.8-16.9-16.9-9.1l-0.9,0.9l1,0.7
						L-1.2,3.1l0.7,0.5l0.6-0.6c6.5-7.1,17.5-23.1,23.1-33.6l0.5-0.9l-1-0.4L6.4-39.8L5.5-40.2L5.5-40.2z"/>
				</g>
			</g>
			<g>
				<path fill="none" stroke="#FFFFFF" stroke-width="5" stroke-linecap="round" stroke-linejoin="round" d="M50-47.3v54
					c0,7.2-4.5,12.1-13.7,12.1c-7.1,0-14-0.2-20.7-1.1L13.9,0c5,1,10.1,1.3,13,1.3c3,0,4-1,4.2-4c0.1-3.3,0.1-38.3,0.1-44.6H2.6
					c-3.6,0-8.8,0.1-12.2,0.5v-18.9c3.7,0.5,8.6,1,12.2,1h28.5v-8c0-3.3-0.6-9.2-1.1-11.4h21.3C51-82.5,50-75.9,50-72.6v7.8h25.5
					c3.7,0,9.5-0.4,12.8-0.8v18.8c-4-0.4-9.3-0.5-12.7-0.5H50z"/>
				<g>
					<path fill="none" stroke="#FFFFFF" stroke-width="5" stroke-linecap="round" stroke-linejoin="round" d="M51.3-84.2
						C51-82.5,50-75.9,50-72.6v7.8h25.5c3.7,0,9.5-0.4,12.8-0.8v18.8c-4-0.4-9.3-0.5-12.7-0.5H50v54c0,7.2-4.5,12.1-13.7,12.1
						c-7.1,0-14-0.2-20.7-1.1L13.9,0c5,1,10.1,1.3,13,1.3c3,0,4-1,4.2-4c0.1-3.3,0.1-38.3,0.1-44.6H2.6c-3.6,0-8.8,0.1-12.2,0.5
						v-18.9c3.7,0.5,8.6,1,12.2,1h28.5v-8c0-3.3-0.6-9.2-1.1-11.4H51.3 M52.6-85.2h-1.2H30.1h-1.2l0.3,1.2c0.5,2.2,1,7.9,1,11.2v7
						H2.6c-4.3,0-9.9-0.7-12.1-0.9l-1.1-0.1v1.1v18.9v1.1l1.1-0.1c3.3-0.3,8.5-0.5,12.1-0.5h27.5c0,25.6,0,41.5-0.1,43.5
						c-0.1,2.5-0.7,3.1-3.2,3.1c-2.8,0-7.8-0.3-12.8-1.3l-1.3-0.3l0.1,1.3l1.8,17.7l0.1,0.8l0.8,0.1c5.9,0.7,12.5,1.1,20.8,1.1
						c9.2,0,14.7-4.9,14.7-13.1v-53h24.7c3.5,0,8.7,0.1,12.6,0.5l1.1,0.1v-1.1v-18.8v-1.2l-1.1,0.2c-3.2,0.5-8.9,0.8-12.7,0.8H51
						v-6.8c0-3,0.9-9.6,1.3-11.3L52.6-85.2L52.6-85.2z"/>
				</g>
			</g>
			<g>
				<path fill="none" stroke="#FFFFFF" stroke-width="5" stroke-linecap="round" stroke-linejoin="round" d="M74.2-39.5
					c5.9,7.6,15.4,22.7,20.2,31.4L77.5,1.2c-5.3-10.7-13.5-24.8-19-32.1L74.2-39.5z"/>
				<g>
					<path fill="none" stroke="#FFFFFF" stroke-width="5" stroke-linecap="round" stroke-linejoin="round" d="M74.2-39.5
						c5.9,7.6,15.4,22.7,20.2,31.4L77.5,1.2c-5.3-10.7-13.5-24.8-19-32.1L74.2-39.5 M74.4-40.8l-0.7,0.4L58-31.8l-1,0.6l0.7,0.9
						c5.7,7.5,14,22.1,18.9,31.9l0.5,0.9L78,2l16.9-9.3l0.9-0.5l-0.5-0.9c-4.8-8.8-14.3-23.9-20.3-31.5L74.4-40.8L74.4-40.8z"/>
				</g>
			</g>
			<g>
				<g>
					<path fill="none" stroke="#FFFFFF" stroke-width="5" stroke-linecap="round" stroke-linejoin="round" d="M136.8-1
						c0,3.2,0.7,12.6,1.3,17.9h-22.6C116.4,11.8,117,3.9,117-1v-67.9c0-4.8-0.5-10.9-1.4-15.4H138c-0.5,4.5-1.2,9.7-1.2,15.4V-1z"/>
				</g>
				<g>
					<path fill="none" stroke="#FFFFFF" stroke-width="5" stroke-linecap="round" stroke-linejoin="round" d="M138-84.3
						c-0.5,4.5-1.2,9.7-1.2,15.4V-1c0,3.2,0.7,12.6,1.3,17.9h-22.6C116.4,11.8,117,3.9,117-1v-67.9c0-4.8-0.5-10.9-1.4-15.4H138
						 M139.1-85.3H138h-22.5h-1.2l0.3,1.2c0.9,4.1,1.4,10,1.4,15.2V-1c0,5.1-0.6,12.9-1.4,17.8l-0.2,1.2h1.2h22.6h1.1l-0.1-1.1
						c-0.6-5.2-1.3-14.6-1.3-17.8v-67.9c0-4.7,0.5-9.1,0.9-13c0.1-0.8,0.2-1.6,0.3-2.4L139.1-85.3L139.1-85.3z"/>
				</g>
			</g>
			<g>
				<g>
					<path fill="none" stroke="#FFFFFF" stroke-width="5" stroke-linecap="round" stroke-linejoin="round" d="M247.1-10.7
						c0,6.8,3.9,8.4,12.7,8.4C270-2.3,280.9-3,290.1-4l-1.3,19.6c-6.9,0.4-21.5,0.7-32.6,0.7c-23.9,0-29-8.1-29-21.4v-20.7h-17.4
						c-3.6,0-10.2,0.4-14,0.6v-18.8c3.4,0.2,10.1,0.7,14,0.7h17.4v-17.5h-11.5c-4.4,0-8.3,0.1-12,0.4v-17.8c3.7,0.2,7.6,0.6,12,0.6
						h57.6c4,0,8.3-0.2,11.2-0.6v17.8c-3.2-0.1-6.8-0.4-11.2-0.4h-26.3v17.5h33.5c2.5,0,9.2-0.4,12.5-0.6l0.1,18.4
						c-3.6-0.5-9.5-0.4-12.1-0.4h-34V-10.7z"/>
				</g>
				<g>
					<path fill="none" stroke="#FFFFFF" stroke-width="5" stroke-linecap="round" stroke-linejoin="round" d="M284.5-78.1v17.8
						c-3.2-0.1-6.8-0.4-11.2-0.4h-26.3v17.5h33.5c2.5,0,9.2-0.4,12.5-0.6l0.1,18.4c-2.4-0.3-5.8-0.4-8.6-0.4c-1.4,0-2.6,0-3.5,0h-34
						v15c0,6.8,3.9,8.4,12.7,8.4C270-2.3,280.9-3,290.1-4l-1.3,19.6c-6.9,0.4-21.5,0.7-32.6,0.7c-23.9,0-29-8.1-29-21.4v-20.7h-17.4
						c-3.6,0-10.2,0.4-14,0.6v-18.8c3.4,0.2,10.1,0.7,14,0.7h17.4v-17.5h-11.5c-4.4,0-8.3,0.1-12,0.4v-17.8c3.7,0.2,7.6,0.6,12,0.6
						h57.6C277.4-77.5,281.6-77.8,284.5-78.1 M285.5-79.2l-1.1,0.1c-2.9,0.4-7.1,0.6-11,0.6h-57.6c-3.5,0-6.6-0.2-9.6-0.4
						c-0.8-0.1-1.6-0.1-2.3-0.2l-1.1-0.1v1.1v17.8v1.1l1.1-0.1c3.7-0.2,7.6-0.4,11.9-0.4h10.5v15.5h-16.4c-3.7,0-9.8-0.4-13.4-0.7
						l-0.5,0l-1.1-0.1v1.1v18.8v1.1l1.1-0.1c4.4-0.3,10.7-0.6,14-0.6h16.4V-5c0,13.4,5.1,22.4,30,22.4c11.2,0,25.9-0.4,32.6-0.7
						l0.9,0l0.1-0.9l1.3-19.6l0.1-1.2L290-5c-10.3,1.1-21,1.7-30.2,1.7c-9,0-11.7-1.7-11.7-7.4v-14h33c0.4,0,0.8,0,1.4,0
						c0.6,0,1.4,0,2.2,0c2.5,0,6.1,0,8.5,0.4l1.1,0.2l0-1.1L294-43.8l0-1.1l-1.1,0.1c-3.3,0.2-9.9,0.6-12.4,0.6h-32.5v-15.5h25.3
						c3.2,0,6,0.1,8.4,0.2c0.9,0,1.8,0.1,2.7,0.1l1,0v-1v-17.8V-79.2L285.5-79.2z"/>
				</g>
			</g>
			<g>
				<g>
					<path fill="none" stroke="#FFFFFF" stroke-width="5" stroke-linecap="round" stroke-linejoin="round" d="M-42.1,86l-6.4-12.3
						h-4V86H-61V51h12.8c7.5,0,13.7,2.5,13.7,11c0,5.1-2.4,8.4-6,10.1l7.8,13.9H-42.1z M-52.6,67h3.8c4,0,6.1-1.7,6.1-5
						c0-3.3-2.1-4.4-6.1-4.4h-3.8V67z"/>
				</g>
				<g>
					<path fill="none" stroke="#FFFFFF" stroke-width="5" stroke-linecap="round" stroke-linejoin="round" d="M-48.2,51
						c7.5,0,13.7,2.5,13.7,11c0,5.1-2.4,8.4-6,10.1l7.8,13.9h-9.4l-6.4-12.3h-4V86H-61V51H-48.2 M-52.6,67h3.8c4,0,6.1-1.7,6.1-5
						c0-3.3-2.1-4.4-6.1-4.4h-3.8V67 M-48.2,50H-61h-1v1v35v1h1h8.4h1v-1V74.7h2.4l6.2,11.8l0.3,0.5h0.6h9.4h1.7l-0.8-1.5l-7.3-13
						c2.8-1.6,5.6-4.6,5.6-10.5C-33.5,56.5-36,50-48.2,50L-48.2,50z M-51.6,58.6h2.8c4.3,0,5.1,1.3,5.1,3.4c0,1,0,4-5.1,4h-2.8V58.6
						L-51.6,58.6z"/>
				</g>
			</g>
			<g>
				<g>
					<path fill="none" stroke="#FFFFFF" stroke-width="5" stroke-linecap="round" stroke-linejoin="round" d="M-29.3,68.3
						c0-11.5,6.5-18,16-18c9.5,0,16,6.5,16,18c0,11.5-6.5,18.3-16,18.3C-22.8,86.6-29.3,79.8-29.3,68.3z M-5.8,68.3
						c0-6.8-2.9-10.8-7.5-10.8c-4.6,0-7.4,4-7.4,10.8c0,6.8,2.8,11.1,7.4,11.1C-8.7,79.4-5.8,75.1-5.8,68.3z"/>
				</g>
				<g>
					<path fill="none" stroke="#FFFFFF" stroke-width="5" stroke-linecap="round" stroke-linejoin="round" d="M-13.3,50.3
						c9.5,0,16,6.5,16,18c0,11.5-6.5,18.3-16,18.3c-9.5,0-16-6.9-16-18.3C-29.3,56.8-22.8,50.3-13.3,50.3 M-13.3,79.4
						c4.6,0,7.5-4.3,7.5-11.1c0-6.8-2.9-10.8-7.5-10.8c-4.6,0-7.4,4-7.4,10.8C-20.7,75.1-17.9,79.4-13.3,79.4 M-13.3,49.3
						c-10.5,0-17,7.3-17,19c0,11.7,6.7,19.3,17,19.3c10.3,0,17-7.6,17-19.3C3.8,56.6-2.8,49.3-13.3,49.3L-13.3,49.3z M-13.3,78.4
						c-4,0-6.4-3.9-6.4-10.1c0-6.1,2.4-9.8,6.4-9.8c4.1,0,6.5,3.7,6.5,9.8C-6.8,74.5-9.3,78.4-13.3,78.4L-13.3,78.4z"/>
				</g>
			</g>
			<g>
				<g>
					<path fill="none" stroke="#FFFFFF" stroke-width="5" stroke-linecap="round" stroke-linejoin="round" d="M9.3,51h12.2
						c7.2,0,13,1.9,13,8.7c0,3.1-1.7,6.5-4.6,7.6v0.2c3.5,0.9,6.2,3.6,6.2,8.2c0,7.1-6.1,10.3-13.7,10.3H9.3V51z M21.2,64.9
						c3.6,0,5.2-1.6,5.2-4c0-2.5-1.6-3.5-5.2-3.5h-3.5v7.5H21.2z M21.9,79.5c4,0,6.1-1.5,6.1-4.5c0-2.9-2-4-6.1-4h-4.2v8.5H21.9z"/>
				</g>
				<g>
					<path fill="none" stroke="#FFFFFF" stroke-width="5" stroke-linecap="round" stroke-linejoin="round" d="M21.5,51
						c7.2,0,13,1.9,13,8.7c0,3.1-1.7,6.5-4.6,7.6v0.2c3.5,0.9,6.2,3.6,6.2,8.2c0,7.1-6.1,10.3-13.7,10.3H9.3V51H21.5 M17.7,64.9h3.5
						c3.6,0,5.2-1.6,5.2-4c0-2.5-1.6-3.5-5.2-3.5h-3.5V64.9 M17.7,79.5h4.2c4,0,6.1-1.5,6.1-4.5c0-2.9-2-4-6.1-4h-4.2V79.5 M21.5,50
						H9.3h-1v1v35v1h1h13.2c9.1,0,14.7-4.3,14.7-11.3c0-4-1.8-7-5.1-8.5c2.2-1.8,3.4-4.9,3.4-7.5C35.5,53.2,30.8,50,21.5,50L21.5,50
						z M18.7,58.4h2.5c3.9,0,4.2,1.2,4.2,2.5c0,0.7,0,3-4.2,3h-2.5V58.4L18.7,58.4z M18.7,72.1h3.2c4.7,0,5.1,1.5,5.1,3
						c0,1.6-0.6,3.5-5.1,3.5h-3.2V72.1L18.7,72.1z"/>
				</g>
			</g>
			<g>
				<g>
					<path fill="none" stroke="#FFFFFF" stroke-width="5" stroke-linecap="round" stroke-linejoin="round" d="M85.7,58h-9.5v-7h27.4
						v7h-9.5v28h-8.4V58z"/>
				</g>
				<g>
					<path fill="none" stroke="#FFFFFF" stroke-width="5" stroke-linecap="round" stroke-linejoin="round" d="M103.6,51v7h-9.5v28
						h-8.4V58h-9.5v-7H103.6 M104.6,50h-1H76.2h-1v1v7v1h1h8.5v27v1h1h8.4h1v-1V59h8.5h1v-1v-7V50L104.6,50z"/>
				</g>
			</g>
			<g>
				<g>
					<path fill="none" stroke="#FFFFFF" stroke-width="5" stroke-linecap="round" stroke-linejoin="round" d="M146,51h9.1l5.5,15.1
						c0.7,2,1.3,4.2,1.9,6.4h0.2c0.7-2.2,1.3-4.4,1.9-6.4L170,51h9.1v35h-7.7V74c0-3.5,0.7-8.7,1.1-12.1h-0.2l-2.9,8.4L164.8,83
						h-4.6l-4.7-12.8l-2.8-8.4h-0.2c0.4,3.4,1.1,8.7,1.1,12.1v12H146V51z"/>
				</g>
				<g>
					<path fill="none" stroke="#FFFFFF" stroke-width="5" stroke-linecap="round" stroke-linejoin="round" d="M179.2,51v35h-7.7V74
						c0-3.5,0.7-8.7,1.1-12.1h-0.2l-2.9,8.4L164.8,83h-4.6l-4.7-12.8l-2.8-8.4h-0.2c0.4,3.4,1.1,8.7,1.1,12.1v12H146V51h9.1
						l5.5,15.1c0.7,2,1.3,4.2,1.9,6.4h0.2c0.7-2.2,1.3-4.4,1.9-6.4L170,51H179.2 M180.2,50h-1H170h-0.7l-0.2,0.7l-5.4,15.1
						c-0.3,1-0.6,2.1-0.9,3.1c0,0.2-0.1,0.3-0.1,0.5c-0.3-1.2-0.7-2.5-1.1-3.6L156,50.7l-0.2-0.7H155H146h-1v1v35v1h1h7.5h1v-1V74
						c0-1.2-0.1-2.5-0.2-3.9l0.2,0.5l4.8,12.8l0.2,0.7h0.7h4.6h0.7l0.2-0.7l4.7-12.8l0.3-0.8c-0.1,1.5-0.2,3-0.2,4.3v12v1h1h7.7h1
						v-1V51V50L180.2,50z"/>
				</g>
			</g>
			<g>
				<g>
					<path fill="none" stroke="#FFFFFF" stroke-width="5" stroke-linecap="round" stroke-linejoin="round" d="M185.6,68.3
						c0-11.5,6.5-18,16-18c9.5,0,16,6.5,16,18c0,11.5-6.5,18.3-16,18.3C192.1,86.6,185.6,79.8,185.6,68.3z M209.1,68.3
						c0-6.8-2.9-10.8-7.5-10.8c-4.6,0-7.4,4-7.4,10.8c0,6.8,2.8,11.1,7.4,11.1C206.3,79.4,209.1,75.1,209.1,68.3z"/>
				</g>
				<g>
					<path fill="none" stroke="#FFFFFF" stroke-width="5" stroke-linecap="round" stroke-linejoin="round" d="M201.6,50.3
						c9.5,0,16,6.5,16,18c0,11.5-6.5,18.3-16,18.3c-9.5,0-16-6.9-16-18.3C185.6,56.8,192.1,50.3,201.6,50.3 M201.6,79.4
						c4.6,0,7.5-4.3,7.5-11.1c0-6.8-2.9-10.8-7.5-10.8c-4.6,0-7.4,4-7.4,10.8C194.2,75.1,197,79.4,201.6,79.4 M201.6,49.3
						c-10.5,0-17,7.3-17,19c0,11.7,6.7,19.3,17,19.3s17-7.6,17-19.3C218.7,56.6,212.2,49.3,201.6,49.3L201.6,49.3z M201.6,78.4
						c-4,0-6.4-3.9-6.4-10.1c0-6.1,2.4-9.8,6.4-9.8c4.1,0,6.5,3.7,6.5,9.8C208.1,74.5,205.6,78.4,201.6,78.4L201.6,78.4z"/>
				</g>
			</g>
			<g>
				<path fill="none" stroke="#FFFFFF" stroke-width="5" stroke-linecap="round" stroke-linejoin="round" d="M-155.9-63.8
					C-172.3-62-185-48.2-185-31.3s12.7,30.7,29.1,32.5V-63.8z"/>
				<g>
					<path fill="none" stroke="#FFFFFF" stroke-width="5" stroke-linecap="round" stroke-linejoin="round" d="M-155.9-63.8v65
						C-172.3-0.6-185-14.5-185-31.3C-185-48.2-172.3-62-155.9-63.8 M-154.9-64.9l-1.1,0.1c-17.1,1.9-30,16.3-30,33.5
						s12.9,31.6,30,33.5l1.1,0.1V1.2v-65V-64.9L-154.9-64.9z"/>
				</g>
			</g>
			<g>
				<path fill="none" stroke="#FFFFFF" stroke-width="5" stroke-linecap="round" stroke-linejoin="round" d="M-54.1-63.8
					c16.4,1.8,29.1,15.7,29.1,32.5S-37.8-0.6-54.1,1.2V-63.8z"/>
				<g>
					<path fill="none" stroke="#FFFFFF" stroke-width="5" stroke-linecap="round" stroke-linejoin="round" d="M-54.1-63.8
						c16.4,1.8,29.1,15.7,29.1,32.5c0,16.8-12.7,30.7-29.1,32.5V-63.8 M-55.1-64.9v1.1v65v1.1l1.1-0.1c17.1-1.9,30-16.3,30-33.5
						s-12.9-31.6-30-33.5L-55.1-64.9L-55.1-64.9z"/>
				</g>
			</g>
			<g>
				
					<circle fill="none" stroke="#FFFFFF" stroke-width="5" stroke-linecap="round" stroke-linejoin="round" cx="-106.1" cy="-96.1" r="17.6"/>
				<g>
					<path fill="none" stroke="#FFFFFF" stroke-width="5" stroke-linecap="round" stroke-linejoin="round" d="M-106.1-113.7
						c9.7,0,17.6,7.9,17.6,17.6c0,9.7-7.9,17.6-17.6,17.6s-17.6-7.9-17.6-17.6C-123.6-105.8-115.8-113.7-106.1-113.7 M-106.1-114.7
						c-10.2,0-18.6,8.3-18.6,18.6c0,10.2,8.3,18.6,18.6,18.6s18.6-8.3,18.6-18.6C-87.5-106.4-95.8-114.7-106.1-114.7L-106.1-114.7z"
						/>
				</g>
			</g>
			<g>
				
					<rect x="-123.6" y="-84.6" fill="none" stroke="#FFFFFF" stroke-width="5" stroke-linecap="round" stroke-linejoin="round" width="36.4" height="6.1"/>
				<g>
					<path fill="none" stroke="#FFFFFF" stroke-width="5" stroke-linecap="round" stroke-linejoin="round" d="M-87.3-84.6v6.1h-36.4
						v-6.1H-87.3 M-86.3-85.6h-1h-36.4h-1v1v6.1v1h1h36.4h1v-1v-6.1V-85.6L-86.3-85.6z"/>
				</g>
			</g>
			<g>
				
					<rect x="-202.8" y="48.6" transform="matrix(0.746 -0.666 0.666 0.746 -82.5843 -109.4392)" fill="none" stroke="#FFFFFF" stroke-width="5" stroke-linecap="round" stroke-linejoin="round" width="36" height="9.8"/>
				<g>
					<path fill="none" stroke="#FFFFFF" stroke-width="5" stroke-linecap="round" stroke-linejoin="round" d="M-174.6,37.9l6.5,7.3
						l-26.9,24l-6.5-7.3L-174.6,37.9 M-174.5,36.5l-0.7,0.7l-26.9,24l-0.7,0.7l0.7,0.7l6.5,7.3l0.7,0.7l0.7-0.7l26.9-24l0.7-0.7
						l-0.7-0.7l-6.5-7.3L-174.5,36.5L-174.5,36.5z"/>
				</g>
			</g>
			<g>
				
					<rect x="-183.8" y="58.4" transform="matrix(0.5399 -0.8417 0.8417 0.5399 -132.0053 -117.5123)" fill="none" stroke="#FFFFFF" stroke-width="5" stroke-linecap="round" stroke-linejoin="round" width="20.6" height="7.3"/>
				<g>
					<path fill="none" stroke="#FFFFFF" stroke-width="5" stroke-linecap="round" stroke-linejoin="round" d="M-171,51.4l6.1,3.9
						L-176,72.6l-6.1-3.9L-171,51.4 M-171.3,50l-0.5,0.8L-183,68.2l-0.5,0.8l0.8,0.5l6.1,3.9l0.8,0.5l0.5-0.8l11.1-17.3l0.5-0.8
						l-0.8-0.5l-6.1-3.9L-171.3,50L-171.3,50z"/>
				</g>
			</g>
			<g>
				
					<rect x="-171.2" y="63.3" transform="matrix(0.2444 -0.9697 0.9697 0.2444 -186.438 -105.4421)" fill="none" stroke="#FFFFFF" stroke-width="5" stroke-linecap="round" stroke-linejoin="round" width="20.6" height="7.3"/>
				<g>
					<path fill="none" stroke="#FFFFFF" stroke-width="5" stroke-linecap="round" stroke-linejoin="round" d="M-161.9,56l7.1,1.8
						l-5,20l-7.1-1.8L-161.9,56 M-162.6,54.8l-0.2,1l-5,20l-0.2,1l1,0.2l7.1,1.8l1,0.2l0.2-1l5-20l0.2-1l-1-0.2l-7.1-1.8
						L-162.6,54.8L-162.6,54.8z"/>
				</g>
			</g>
			<g>
				
					<rect x="-152.4" y="57.8" fill="none" stroke="#FFFFFF" stroke-width="5" stroke-linecap="round" stroke-linejoin="round" width="7.3" height="20.6"/>
				<g>
					<path fill="none" stroke="#FFFFFF" stroke-width="5" stroke-linecap="round" stroke-linejoin="round" d="M-145.1,57.8v20.6
						h-7.3V57.8H-145.1 M-144.1,56.8h-1h-7.3h-1v1v20.6v1h1h7.3h1v-1V57.8V56.8L-144.1,56.8z"/>
				</g>
			</g>
			<g>
				
					<rect x="-141" y="57.8" fill="none" stroke="#FFFFFF" stroke-width="5" stroke-linecap="round" stroke-linejoin="round" width="7.3" height="20.6"/>
				<g>
					<path fill="none" stroke="#FFFFFF" stroke-width="5" stroke-linecap="round" stroke-linejoin="round" d="M-133.7,57.8v20.6
						h-7.3V57.8H-133.7 M-132.7,56.8h-1h-7.3h-1v1v20.6v1h1h7.3h1v-1V57.8V56.8L-132.7,56.8z"/>
				</g>
			</g>
			<g>
				
					<rect x="-130" y="57.8" fill="none" stroke="#FFFFFF" stroke-width="5" stroke-linecap="round" stroke-linejoin="round" width="7.3" height="20.6"/>
				<g>
					<path fill="none" stroke="#FFFFFF" stroke-width="5" stroke-linecap="round" stroke-linejoin="round" d="M-122.7,57.8v20.6
						h-7.3V57.8H-122.7 M-121.7,56.8h-1h-7.3h-1v1v20.6v1h1h7.3h1v-1V57.8V56.8L-121.7,56.8z"/>
				</g>
			</g>
			<g>
				<path fill="none" stroke="#FFFFFF" stroke-width="5" stroke-linecap="round" stroke-linejoin="round" d="M-202.2,3.4
					c5.5,6.5,6.1,15.5,2.2,22.5c4.4-0.8,9.2,0.7,12.3,4.4c2.3,2.6,3.3,5.9,3.2,9.1c10.4-14.6,10-35-2.2-49.2
					c-13.7-15.9-37.2-18.5-53.9-6.3l11.2,17C-221.2-5.7-209.2-4.7-202.2,3.4z"/>
				<path fill="none" stroke="#FFFFFF" stroke-width="5" stroke-linecap="round" stroke-linejoin="round" d="M-217.2-23.8
					c11.3,0,22.4,4.7,30.4,13.9c12.2,14.2,12.7,34.6,2.2,49.2c0.1-3.2-0.9-6.5-3.2-9.1c-2.6-3-6.3-4.6-10-4.6
					c-0.8,0-1.6,0.1-2.4,0.2c4-7,3.4-16-2.2-22.5c-3.9-4.5-9.4-6.8-14.9-6.8c-4.3,0-8.7,1.4-12.3,4.4l-11.2-17
					C-233.6-21.2-225.4-23.8-217.2-23.8 M-217.2-24.8L-217.2-24.8c-8.7,0-17.1,2.7-24.1,7.8l-0.8,0.6l0.5,0.8l11.2,17l0.6,0.9
					l0.9-0.7c3.3-2.7,7.5-4.1,11.7-4.1c5.4,0,10.6,2.4,14.1,6.5c5.1,5.9,5.9,14.5,2.1,21.3l-1.1,1.9l2.1-0.4
					c0.7-0.1,1.4-0.2,2.2-0.2c3.6,0,6.9,1.5,9.2,4.2c2,2.3,3,5.3,2.9,8.4l-0.1,3.4l2-2.7c11-15.4,10-36.1-2.3-50.5
					C-193.8-19.5-205.2-24.8-217.2-24.8L-217.2-24.8z"/>
			</g>
			<g>
				<path fill="none" stroke="#FFFFFF" stroke-width="5" stroke-linecap="round" stroke-linejoin="round" d="M-190,32.2
					c-3.7-4.3-10.1-4.7-14.3-1.1l0,0c0,0,0,0,0,0c-8.2,7.1-20.7,6.1-27.7-2.1c-6.9-8.1-6.1-20.2,1.7-27.3l-15.1-13.6
					c-14.6,14.6-15.6,38.3-2,54.2c14.4,16.8,39.6,18.7,56.4,4.3c0,0,0,0,0,0C-186.8,42.9-186.4,36.5-190,32.2z"/>
				<path fill="none" stroke="#FFFFFF" stroke-width="5" stroke-linecap="round" stroke-linejoin="round" d="M-245.5-11.9l15.1,13.6
					c-7.8,7.1-8.6,19.2-1.7,27.3c3.9,4.5,9.4,6.9,14.9,6.9c4.5,0,9.1-1.6,12.8-4.7c0,0,0,0,0,0l0,0c1.9-1.6,4.3-2.4,6.6-2.4
					c2.9,0,5.7,1.2,7.7,3.5c3.7,4.3,3.2,10.7-1.1,14.3c0,0,0,0,0,0c-7.5,6.5-16.8,9.6-26,9.6c-11.3,0-22.5-4.7-30.4-13.9
					C-261.2,26.3-260.1,2.7-245.5-11.9 M-245.6-13.3l-0.7,0.7c-7.2,7.3-11.5,17-11.9,27.3c-0.4,10.4,3.1,20.4,9.8,28.3
					c7.8,9.1,19.1,14.3,31.1,14.3c9.8,0,19.2-3.5,26.7-9.9c2.3-1.9,3.6-4.7,3.9-7.6c0.2-3-0.7-5.9-2.7-8.1c-2.1-2.5-5.2-3.9-8.5-3.9
					c-2.3,0-4.6,0.7-6.5,2.1l0,0l-0.8,0.6l0,0l0,0c-3.4,2.9-7.7,4.5-12.1,4.5c-5.5,0-10.6-2.4-14.2-6.5c-6.6-7.7-5.9-19.1,1.6-25.9
					l0.8-0.7l-0.8-0.7l-15.1-13.6L-245.6-13.3L-245.6-13.3z"/>
			</g>
			
				<circle fill="none" stroke="#FFFFFF" stroke-width="5" stroke-linecap="round" stroke-linejoin="round" cx="-197.7" cy="38.9" r="3.8"/>
			<g>
				
					<rect x="330.1" y="35.5" transform="matrix(0.666 -0.746 0.746 0.666 71.979 267.8218)" fill="none" stroke="#FFFFFF" stroke-width="5" stroke-linecap="round" stroke-linejoin="round" width="9.8" height="36"/>
				<g>
					<path fill="none" stroke="#FFFFFF" stroke-width="5" stroke-linecap="round" stroke-linejoin="round" d="M324.9,37.9l26.9,24
						l-6.5,7.3l-26.9-24L324.9,37.9 M324.8,36.5l-0.7,0.7l-6.5,7.3l-0.7,0.7l0.7,0.7l26.9,24l0.7,0.7l0.7-0.7l6.5-7.3l0.7-0.7
						l-0.7-0.7l-26.9-24L324.8,36.5L324.8,36.5z"/>
				</g>
			</g>
			<g>
				
					<rect x="320.2" y="51.7" transform="matrix(0.8417 -0.5399 0.5399 0.8417 17.7778 184.6324)" fill="none" stroke="#FFFFFF" stroke-width="5" stroke-linecap="round" stroke-linejoin="round" width="7.3" height="20.6"/>
				<g>
					<path fill="none" stroke="#FFFFFF" stroke-width="5" stroke-linecap="round" stroke-linejoin="round" d="M321.3,51.4l11.1,17.3
						l-6.1,3.9l-11.1-17.3L321.3,51.4 M321.6,50l-0.8,0.5l-6.1,3.9l-0.8,0.5l0.5,0.8l11.1,17.3L326,74l0.8-0.5l6.1-3.9l0.8-0.5
						l-0.5-0.8l-11.1-17.3L321.6,50L321.6,50z"/>
				</g>
			</g>
			<g>
				
					<rect x="307.5" y="56.6" transform="matrix(0.9697 -0.2444 0.2444 0.9697 -6.9158 78.0744)" fill="none" stroke="#FFFFFF" stroke-width="5" stroke-linecap="round" stroke-linejoin="round" width="7.3" height="20.6"/>
				<g>
					<path fill="none" stroke="#FFFFFF" stroke-width="5" stroke-linecap="round" stroke-linejoin="round" d="M312.2,56l5,20
						l-7.1,1.8l-5-20L312.2,56 M312.9,54.8l-1,0.2l-7.1,1.8l-1,0.2l0.2,1l5,20l0.2,1l1-0.2l7.1-1.8l1-0.2l-0.2-1l-5-20L312.9,54.8
						L312.9,54.8z"/>
				</g>
			</g>
			<g>
				
					<rect x="295.4" y="57.8" fill="none" stroke="#FFFFFF" stroke-width="5" stroke-linecap="round" stroke-linejoin="round" width="7.3" height="20.6"/>
				<g>
					<path fill="none" stroke="#FFFFFF" stroke-width="5" stroke-linecap="round" stroke-linejoin="round" d="M302.7,57.8v20.6h-7.3
						V57.8H302.7 M303.7,56.8h-1h-7.3h-1v1v20.6v1h1h7.3h1v-1V57.8V56.8L303.7,56.8z"/>
				</g>
			</g>
			<g>
				
					<rect x="284" y="57.8" fill="none" stroke="#FFFFFF" stroke-width="5" stroke-linecap="round" stroke-linejoin="round" width="7.3" height="20.6"/>
				<g>
					<path fill="none" stroke="#FFFFFF" stroke-width="5" stroke-linecap="round" stroke-linejoin="round" d="M291.3,57.8v20.6H284
						V57.8H291.3 M292.3,56.8h-1H284h-1v1v20.6v1h1h7.3h1v-1V57.8V56.8L292.3,56.8z"/>
				</g>
			</g>
			<g>
				
					<rect x="273" y="57.8" fill="none" stroke="#FFFFFF" stroke-width="5" stroke-linecap="round" stroke-linejoin="round" width="7.3" height="20.6"/>
				<g>
					<path fill="none" stroke="#FFFFFF" stroke-width="5" stroke-linecap="round" stroke-linejoin="round" d="M280.3,57.8v20.6H273
						V57.8H280.3 M281.3,56.8h-1H273h-1v1v20.6v1h1h7.3h1v-1V57.8V56.8L281.3,56.8z"/>
				</g>
			</g>
			<g>
				<path fill="none" stroke="#FFFFFF" stroke-width="5" stroke-linecap="round" stroke-linejoin="round" d="M321.7-4.2
					c-6.4,17-0.4,35.6,13.5,46c-0.9-3.9,0-8.2,2.8-11.5c2.5-2.9,6.1-4.5,9.6-4.6c-7-5.1-10.1-14.3-6.9-22.8
					c3.7-10,14.7-15.1,24.7-11.7l4.6-19.9C350.2-34.3,329.1-23.9,321.7-4.2z"/>
				<path fill="none" stroke="#FFFFFF" stroke-width="5" stroke-linecap="round" stroke-linejoin="round" d="M359.1-30.2
					c3.6,0,7.3,0.5,10.9,1.5l-4.6,19.9c-2.1-0.7-4.2-1-6.3-1c-8,0-15.4,4.9-18.4,12.8c-3.2,8.5-0.1,17.8,6.9,22.8
					c-3.6,0.1-7.1,1.6-9.6,4.6c-2.8,3.3-3.7,7.6-2.8,11.5c-13.9-10.4-19.9-29-13.5-46C327.7-20.3,342.9-30.2,359.1-30.2 M359.1-31.2
					c-17,0-32.4,10.7-38.4,26.6c-6.3,16.9-0.7,36.3,13.8,47.2l2.2,1.6l-0.6-2.6c-0.9-3.8,0.1-7.7,2.6-10.6c2.2-2.6,5.5-4.1,8.9-4.2
					l3-0.1l-2.4-1.7c-6.8-4.9-9.5-13.8-6.6-21.7c2.7-7.2,9.7-12.1,17.5-12.1c2,0,4.1,0.3,6,1l1,0.4l0.3-1.1l4.6-19.9l0.2-0.9
					l-0.9-0.3C366.7-30.7,362.9-31.2,359.1-31.2L359.1-31.2z"/>
			</g>
			<g>
				<path fill="none" stroke="#FFFFFF" stroke-width="5" stroke-linecap="round" stroke-linejoin="round" d="M406.6,1.1l-18,9.6
					c5.9,8.8,3.8,20.7-4.9,26.9c-8.8,6.3-21.1,4.2-27.4-4.6c0,0,0,0,0,0l0,0c-3.3-4.6-9.6-5.6-14.2-2.4s-5.6,9.6-2.4,14.2
					c0,0,0,0,0,0c12.8,18,37.8,22.2,55.8,9.4C412.6,41.9,417.2,18.8,406.6,1.1z"/>
				<path fill="none" stroke="#FFFFFF" stroke-width="5" stroke-linecap="round" stroke-linejoin="round" d="M406.6,1.1
					c10.6,17.7,6,40.9-11.1,53.1c-7,5-15.1,7.4-23.2,7.4c-12.5,0-24.8-5.8-32.6-16.8c0,0,0,0,0,0c-3.3-4.6-2.2-10.9,2.4-14.2
					c1.8-1.3,3.8-1.9,5.9-1.9c3.2,0,6.3,1.5,8.3,4.3l0,0c0,0,0,0,0,0c3.8,5.4,9.9,8.3,16,8.3c3.9,0,7.9-1.2,11.4-3.6
					c8.7-6.2,10.8-18.1,4.9-26.9L406.6,1.1 M407-0.3l-0.8,0.4l-18,9.6l-1,0.5l0.6,0.9c5.6,8.4,3.6,19.7-4.7,25.6
					c-3.2,2.3-6.9,3.5-10.8,3.5c-6,0-11.7-2.9-15.2-7.8l0,0l0,0l-0.6-0.8l0,0c-2.1-2.5-5.2-3.9-8.5-3.9c-2.3,0-4.6,0.7-6.5,2.1
					c-5,3.6-6.2,10.5-2.6,15.6c7.7,10.8,20.2,17.2,33.4,17.2c8.5,0,16.8-2.6,23.7-7.6c8.5-6,14.3-14.9,16.4-25.1
					c2.1-10.1,0.3-20.5-5-29.3L407-0.3L407-0.3z"/>
			</g>
			
				<circle fill="none" stroke="#FFFFFF" stroke-width="5" stroke-linecap="round" stroke-linejoin="round" cx="348" cy="38.9" r="3.8"/>
			<g>
				
					<circle fill="none" stroke="#FFFFFF" stroke-width="5" stroke-linecap="round" stroke-linejoin="round" cx="56.2" cy="68.2" r="17.2"/>
				<path fill="none" stroke="#FFFFFF" stroke-width="5" stroke-linecap="round" stroke-linejoin="round" d="M56.2,51
					c9.5,0,17.2,7.7,17.2,17.2s-7.7,17.2-17.2,17.2S39,77.7,39,68.2S46.7,51,56.2,51 M56.2,50C46.2,50,38,58.2,38,68.2
					s8.2,18.2,18.2,18.2s18.2-8.2,18.2-18.2S66.2,50,56.2,50L56.2,50z"/>
			</g>
			<g>
				
					<circle fill="none" stroke="#FFFFFF" stroke-width="5" stroke-linecap="round" stroke-linejoin="round" cx="56.2" cy="68.2" r="10.9"/>
				<g>
					<path fill="none" stroke="#FFFFFF" stroke-width="5" stroke-linecap="round" stroke-linejoin="round" d="M56.2,57.4
						c6,0,10.9,4.9,10.9,10.9s-4.9,10.9-10.9,10.9c-6,0-10.9-4.9-10.9-10.9S50.2,57.4,56.2,57.4 M56.2,56.4
						c-6.5,0-11.9,5.3-11.9,11.9s5.3,11.9,11.9,11.9S68,74.8,68,68.2S62.7,56.4,56.2,56.4L56.2,56.4z"/>
				</g>
			</g>
			<g>
				
					<circle fill="none" stroke="#FFFFFF" stroke-width="5" stroke-linecap="round" stroke-linejoin="round" cx="56.2" cy="68.2" r="5.3"/>
				<g>
					<path fill="none" stroke="#FFFFFF" stroke-width="5" stroke-linecap="round" stroke-linejoin="round" d="M56.2,62.9
						c3,0,5.3,2.4,5.3,5.3s-2.4,5.3-5.3,5.3c-3,0-5.3-2.4-5.3-5.3S53.2,62.9,56.2,62.9 M56.2,61.9c-3.5,0-6.3,2.8-6.3,6.3
						c0,3.5,2.8,6.3,6.3,6.3s6.3-2.8,6.3-6.3C62.5,64.8,59.7,61.9,56.2,61.9L56.2,61.9z"/>
				</g>
			</g>
			<g>
				<g>
					
						<circle fill="none" stroke="#FFFFFF" stroke-width="5" stroke-linecap="round" stroke-linejoin="round" cx="123.5" cy="68.2" r="17.2"/>
					<path fill="none" stroke="#FFFFFF" stroke-width="5" stroke-linecap="round" stroke-linejoin="round" d="M123.5,51
						c9.5,0,17.2,7.7,17.2,17.2s-7.7,17.2-17.2,17.2s-17.2-7.7-17.2-17.2S114,51,123.5,51 M123.5,50c-10,0-18.2,8.2-18.2,18.2
						s8.2,18.2,18.2,18.2s18.2-8.2,18.2-18.2S133.5,50,123.5,50L123.5,50z"/>
				</g>
				<g>
					
						<circle fill="none" stroke="#FFFFFF" stroke-width="5" stroke-linecap="round" stroke-linejoin="round" cx="123.5" cy="68.2" r="10.9"/>
					<g>
						<path fill="none" stroke="#FFFFFF" stroke-width="5" stroke-linecap="round" stroke-linejoin="round" d="M123.5,57.4
							c6,0,10.9,4.9,10.9,10.9s-4.9,10.9-10.9,10.9c-6,0-10.9-4.9-10.9-10.9S117.5,57.4,123.5,57.4 M123.5,56.4
							c-6.5,0-11.9,5.3-11.9,11.9s5.3,11.9,11.9,11.9c6.5,0,11.9-5.3,11.9-11.9S130,56.4,123.5,56.4L123.5,56.4z"/>
					</g>
				</g>
				<g>
					
						<circle fill="none" stroke="#FFFFFF" stroke-width="5" stroke-linecap="round" stroke-linejoin="round" cx="123.5" cy="68.2" r="5.3"/>
					<g>
						<path fill="none" stroke="#FFFFFF" stroke-width="5" stroke-linecap="round" stroke-linejoin="round" d="M123.5,62.9
							c3,0,5.3,2.4,5.3,5.3s-2.4,5.3-5.3,5.3s-5.3-2.4-5.3-5.3S120.5,62.9,123.5,62.9 M123.5,61.9c-3.5,0-6.3,2.8-6.3,6.3
							c0,3.5,2.8,6.3,6.3,6.3s6.3-2.8,6.3-6.3C129.8,64.8,127,61.9,123.5,61.9L123.5,61.9z"/>
					</g>
				</g>
			</g>
			<g>
				<path fill="none" stroke="#FFFFFF" stroke-width="5" stroke-linecap="round" stroke-linejoin="round" d="M346.3-95.5
					c-19.7,3.2-22.3,5.8-25.5,25.5c-3.2-19.7-5.8-22.3-25.5-25.5c19.7-3.2,22.3-5.8,25.5-25.5C324-101.3,326.6-98.7,346.3-95.5z"/>
				<path fill="none" stroke="#FFFFFF" stroke-width="5" stroke-linecap="round" stroke-linejoin="round" d="M346.3-95.5
					c-19.7,3.2-22.3,5.8-25.5,25.5c-3.2-19.7-5.8-22.3-25.5-25.5c19.7-3.2,22.3-5.8,25.5-25.5C324-101.3,326.6-98.7,346.3-95.5z"/>
			</g>
			<g>
				<path fill="none" stroke="#FFFFFF" stroke-width="5" stroke-linecap="round" stroke-linejoin="round" d="M358.1-52
					c-11.5,1.9-13.1,3.4-14.9,14.9c-1.9-11.5-3.4-13.1-14.9-14.9c11.5-1.9,13.1-3.4,14.9-14.9C345.1-55.4,346.6-53.9,358.1-52z"/>
				<path fill="none" stroke="#FFFFFF" stroke-width="5" stroke-linecap="round" stroke-linejoin="round" d="M358.1-52
					c-11.5,1.9-13.1,3.4-14.9,14.9c-1.9-11.5-3.4-13.1-14.9-14.9c11.5-1.9,13.1-3.4,14.9-14.9C345.1-55.4,346.6-53.9,358.1-52z"/>
			</g>
			<g>
				<path fill="none" stroke="#FFFFFF" stroke-width="5" stroke-linecap="round" stroke-linejoin="round" d="M393.3-81.2
					c-16.2,2.6-18.4,4.8-21,21c-2.6-16.2-4.8-18.4-21-21c16.2-2.6,18.4-4.8,21-21C374.9-85.9,377.1-83.8,393.3-81.2z"/>
				<path fill="none" stroke="#FFFFFF" stroke-width="5" stroke-linecap="round" stroke-linejoin="round" d="M393.3-81.2
					c-16.2,2.6-18.4,4.8-21,21c-2.6-16.2-4.8-18.4-21-21c16.2-2.6,18.4-4.8,21-21C374.9-85.9,377.1-83.8,393.3-81.2z"/>
			</g>
			<g>
				<path fill="none" stroke="#FFFFFF" stroke-width="5" stroke-linecap="round" stroke-linejoin="round" d="M176.9-14.7l-45.8-19.1
					c-2.3-1-3.4-3.6-2.5-6l0,0c1-2.3,3.6-3.4,6-2.5l45.8,19.1c2.3,1,3.4,3.6,2.5,6v0C181.9-14.8,179.2-13.7,176.9-14.7z"/>
				<g>
					<path fill="none" stroke="#FFFFFF" stroke-width="5" stroke-linecap="round" stroke-linejoin="round" d="M132.9-42.6
						c0.6,0,1.2,0.1,1.8,0.4l45.8,19.1c2.3,1,3.4,3.6,2.5,6h0c-0.7,1.8-2.4,2.8-4.2,2.8c-0.6,0-1.2-0.1-1.8-0.4l-45.8-19.1
						c-2.3-1-3.4-3.6-2.5-6C129.4-41.6,131.1-42.6,132.9-42.6 M132.9-43.6L132.9-43.6c-2.3,0-4.3,1.3-5.1,3.4
						c-0.6,1.4-0.6,2.9,0,4.3c0.6,1.4,1.6,2.4,3,3l45.8,19.1c0.7,0.3,1.4,0.4,2.1,0.4c2.3,0,4.3-1.3,5.1-3.4c1.2-2.8-0.2-6.1-3-7.3
						L135-43.2C134.4-43.5,133.6-43.6,132.9-43.6L132.9-43.6z"/>
				</g>
			</g>
			<g>
				
					<circle fill="none" stroke="#FFFFFF" stroke-width="5" stroke-linecap="round" stroke-linejoin="round" cx="136.7" cy="-36.3" r="12.4"/>
				<path fill="none" stroke="#FFFFFF" stroke-width="5" stroke-linecap="round" stroke-linejoin="round" d="M136.7-48.6
					c6.8,0,12.4,5.5,12.4,12.4s-5.5,12.4-12.4,12.4c-6.8,0-12.4-5.5-12.4-12.4S129.9-48.6,136.7-48.6 M136.7-49.6
					c-7.4,0-13.4,6-13.4,13.4c0,7.4,6,13.4,13.4,13.4c7.4,0,13.4-6,13.4-13.4C150.1-43.6,144.1-49.6,136.7-49.6L136.7-49.6z"/>
			</g>
			<g>
				
					<circle fill="none" stroke="#FFFFFF" stroke-width="5" stroke-linecap="round" stroke-linejoin="round" cx="136.7" cy="-36.3" r="8.8"/>
				
					<circle fill="none" stroke="#FFFFFF" stroke-width="5" stroke-linecap="round" stroke-linejoin="round" cx="136.7" cy="-36.3" r="8.8"/>
			</g>
			
				<circle fill="none" stroke="#FFFFFF" stroke-width="5" stroke-linecap="round" stroke-linejoin="round" cx="68.8" cy="-72.5" r="10.4"/>
			
				<circle fill="none" stroke="#FFFFFF" stroke-width="5" stroke-linecap="round" stroke-linejoin="round" cx="88.4" cy="-81.2" r="10.4"/>
		</g>
	</g>
	<g display="inline">
		<g>
			<path fill="#939496" d="M-20.7-241.9c0,0-0.5-7.8-1-12.3l-3.8-39.6c-0.3-2.6-0.6-6.4-1-8.9c3.3-0.2,7-0.5,9.4-0.7l45.4-4.4
				c2.2-0.2,5.3-0.5,8.5-0.9c0.1,2.7,0.4,6,0.7,8.8l3.9,39.7c0.3,3.5,1.3,12.1,1.3,12.1L-20.7-241.9z M-11.8-291.2l3.3,34.4
				l36.5-3.5l-3.3-34.4L-11.8-291.2z"/>
		</g>
	</g>
	<path display="inline" fill="#696969" d="M89.6-275.7c-3.9,7.4-11.5,18.2-15.8,23L63.1-260c5.5-5.3,11.8-13.9,15.2-21L89.6-275.7z"
		/>
	<g display="inline">
		<path fill="#939496" d="M108.6-286.8v37.1c0,5-3.1,8.3-9.4,8.3c-4.9,0-9.7-0.2-14.2-0.7l-1.2-12.2c3.4,0.7,7,0.9,8.9,0.9
			c2,0,2.8-0.7,2.9-2.8c0.1-2.3,0.1-26.3,0.1-30.7H76c-2.5,0-6.1,0.1-8.4,0.3v-13c2.5,0.3,5.9,0.7,8.4,0.7h19.6v-5.5
			c0-2.3-0.4-6.3-0.7-7.9h14.6c-0.2,1.1-0.9,5.7-0.9,7.9v5.4h17.6c2.5,0,6.5-0.2,8.8-0.6v12.9c-2.8-0.2-6.4-0.3-8.8-0.3H108.6z"/>
	</g>
	<path display="inline" fill="#696969" d="M125.2-281.4c4.1,5.2,10.6,15.6,13.9,21.6l-11.6,6.4c-3.7-7.4-9.3-17.1-13.1-22.1
		L125.2-281.4z"/>
	<path display="inline" fill="#696969" d="M170.4-254.9c0,2.2,0.5,8.7,0.9,12.4h-15.5c0.6-3.5,1-9,1-12.4v-46.7
		c0-3.3-0.3-7.5-1-10.6h15.5c-0.3,3.1-0.8,6.7-0.8,10.6V-254.9z"/>
	<g display="inline">
		<g>
			<path fill="#939496" d="M244.2-261.6c0,4.7,2.7,5.8,8.8,5.8c7,0,14.6-0.5,20.9-1.1l-0.9,13.5c-4.7,0.2-14.8,0.5-22.4,0.5
				c-16.4,0-20-5.6-20-14.7v-14.2h-11.9c-2.5,0-7,0.2-9.7,0.4v-12.9c2.4,0.2,7,0.5,9.7,0.5h11.9v-12h-7.9c-3,0-5.7,0.1-8.3,0.2V-308
				c2.5,0.2,5.2,0.4,8.3,0.4h39.7c2.8,0,5.7-0.2,7.7-0.4v12.3c-2.2-0.1-4.7-0.2-7.7-0.2h-18.1v12h23.1c1.7,0,6.3-0.2,8.6-0.4
				l0.1,12.7c-2.5-0.3-6.5-0.2-8.3-0.2h-23.4V-261.6z"/>
		</g>
	</g>
	<path display="inline" fill="#696969" d="M45.2-195l-4.4-8.5H38v8.5h-5.8v-24.1H41c5.1,0,9.4,1.7,9.4,7.6c0,3.5-1.7,5.8-4.1,7
		l5.4,9.5H45.2z M38-208.1h2.6c2.8,0,4.2-1.2,4.2-3.5c0-2.3-1.5-3-4.2-3H38V-208.1z"/>
	<g display="inline">
		<g>
			<path fill="#939496" d="M54-207.2c0-7.9,4.5-12.4,11-12.4c6.6,0,11,4.5,11,12.4c0,7.9-4.5,12.6-11,12.6
				C58.5-194.6,54-199.3,54-207.2z M70.2-207.2c0-4.7-2-7.4-5.1-7.4c-3.2,0-5.1,2.8-5.1,7.4c0,4.7,1.9,7.6,5.1,7.6
				C68.2-199.6,70.2-202.5,70.2-207.2z"/>
		</g>
	</g>
	<path display="inline" fill="#696969" d="M80.6-219.1H89c5,0,9,1.3,9,6c0,2.1-1.2,4.5-3.1,5.2v0.1c2.4,0.6,4.3,2.5,4.3,5.7
		c0,4.9-4.2,7.1-9.4,7.1h-9.1V-219.1z M88.7-209.6c2.5,0,3.6-1.1,3.6-2.7c0-1.7-1.1-2.4-3.6-2.4h-2.4v5.1H88.7z M89.2-199.5
		c2.8,0,4.2-1,4.2-3.1c0-2-1.4-2.8-4.2-2.8h-2.9v5.8H89.2z"/>
	<path display="inline" fill="#696969" d="M133.2-214.3h-6.5v-4.8h18.8v4.8h-6.5v19.3h-5.8V-214.3z"/>
	<path display="inline" fill="#696969" d="M174.7-219.1h6.2l3.8,10.4c0.5,1.4,0.9,2.9,1.3,4.4h0.2c0.5-1.5,0.9-3,1.3-4.4l3.7-10.4
		h6.3v24.1h-5.3v-8.3c0-2.4,0.5-6,0.7-8.4h-0.1l-2,5.8l-3.2,8.8h-3.2l-3.3-8.8l-1.9-5.8h-0.1c0.3,2.4,0.7,6,0.7,8.4v8.3h-5.2V-219.1
		z"/>
	<g display="inline">
		<g>
			<path fill="#939496" d="M201.9-207.2c0-7.9,4.5-12.4,11-12.4c6.6,0,11,4.5,11,12.4c0,7.9-4.5,12.6-11,12.6
				C206.4-194.6,201.9-199.3,201.9-207.2z M218.1-207.2c0-4.7-2-7.4-5.1-7.4c-3.2,0-5.1,2.8-5.1,7.4c0,4.7,1.9,7.6,5.1,7.6
				C216.1-199.6,218.1-202.5,218.1-207.2z"/>
		</g>
	</g>
	<g display="inline">
		<path fill="#F39D39" d="M-28.9-294.7c-11.1,2.3-18.9,12.7-17.8,24.2s10.8,20.2,22.1,20.3L-28.9-294.7z"/>
	</g>
	<g display="inline">
		<path fill="#F39D39" d="M40.8-301.5c11.3,0.2,21,8.8,22.1,20.3s-6.7,21.9-17.8,24.2L40.8-301.5z"/>
	</g>
	<g display="inline">
		<circle fill="#F5EB11" cx="3.1" cy="-320.2" r="12.1"/>
	</g>
	<g display="inline">
		
			<rect x="-8" y="-312.3" transform="matrix(0.9953 -9.673109e-02 9.673109e-02 0.9953 30.03 -1.0198)" fill="#D2D3D3" width="25" height="4.2"/>
	</g>
	<g display="inline">
		
			<rect x="-65.4" y="-220.7" transform="matrix(0.746 -0.666 0.666 0.746 131.2974 -90.5005)" fill="#CEA166" width="24.8" height="6.7"/>
	</g>
	<g display="inline">
		
			<rect x="-52.3" y="-214" transform="matrix(0.5399 -0.8417 0.8417 0.5399 157.2456 -135.4045)" fill="#D2D2D2" width="14.2" height="5"/>
	</g>
	<g display="inline">
		
			<rect x="-43.6" y="-210.7" transform="matrix(0.2444 -0.9697 0.9697 0.2444 174.231 -192.7322)" fill="#D2D2D2" width="14.2" height="5"/>
	</g>
	<g display="inline">
		<rect x="-30.7" y="-214.4" fill="#D2D2D2" width="5" height="14.2"/>
	</g>
	<g display="inline">
		<rect x="-22.8" y="-214.5" fill="#D2D2D2" width="5" height="14.2"/>
	</g>
	<g display="inline">
		<rect x="-15.3" y="-214.5" fill="#D2D2D2" width="5" height="14.2"/>
	</g>
	<g display="inline">
		<path fill="#D2D2D2" d="M-65-251.9c3.8,4.4,4.2,10.7,1.5,15.5c3.1-0.6,6.3,0.5,8.5,3c1.6,1.8,2.3,4.1,2.2,6.3
			c7.2-10.1,6.9-24.1-1.5-33.9c-9.4-11-25.6-12.7-37.1-4.3l7.7,11.7C-78.1-258.1-69.8-257.4-65-251.9z"/>
	</g>
	<g display="inline">
		<path fill="#D2D2D2" d="M-56.6-232c-2.5-2.9-6.9-3.3-9.9-0.8l0,0c0,0,0,0,0,0c-5.7,4.9-14.2,4.2-19.1-1.5
			c-4.8-5.6-4.2-13.9,1.2-18.8l-10.4-9.4c-10,10.1-10.8,26.3-1.4,37.3c9.9,11.5,27.3,12.9,38.8,3c0,0,0,0,0,0
			C-54.4-224.7-54.1-229.1-56.6-232z"/>
	</g>
	<circle display="inline" fill="#FFFFFF" cx="-61.9" cy="-227.5" r="2.6"/>
	<g display="inline">
		
			<rect x="301.4" y="-229.8" transform="matrix(0.666 -0.746 0.746 0.666 263.9621 154.7661)" fill="#CEA166" width="6.7" height="24.8"/>
	</g>
	<g display="inline">
		
			<rect x="294.5" y="-218.6" transform="matrix(0.8417 -0.5399 0.5399 0.8417 161.2325 126.8987)" fill="#D2D2D2" width="5" height="14.2"/>
	</g>
	<g display="inline">
		
			<rect x="285.9" y="-215.3" transform="matrix(0.9697 -0.2444 0.2444 0.9697 59.6156 64.16)" fill="#D2D2D2" width="5" height="14.2"/>
	</g>
	<g display="inline">
		<rect x="277.5" y="-214.4" fill="#D2D2D2" width="5" height="14.2"/>
	</g>
	<g display="inline">
		<rect x="269.6" y="-214.5" fill="#D2D2D2" width="5" height="14.2"/>
	</g>
	<g display="inline">
		<rect x="262.1" y="-214.5" fill="#D2D2D2" width="5" height="14.2"/>
	</g>
	<g display="inline">
		<path fill="#D2D2D2" d="M295.6-257.1c-4.4,11.7-0.3,24.5,9.3,31.7c-0.6-2.7,0-5.6,2-7.9c1.7-2,4.2-3.1,6.6-3.1
			c-4.8-3.5-7-9.9-4.8-15.7c2.6-6.9,10.1-10.4,17-8.1l3.2-13.7C315.3-277.9,300.7-270.7,295.6-257.1z"/>
	</g>
	<g display="inline">
		<path fill="#D2D2D2" d="M354.1-253.5l-12.4,6.6c4,6.1,2.6,14.3-3.4,18.5c-6.1,4.3-14.5,2.9-18.9-3.2c0,0,0,0,0,0l0,0
			c-2.2-3.1-6.6-3.9-9.7-1.6c-3.1,2.2-3.9,6.6-1.6,9.7c0,0,0,0,0,0c8.8,12.4,26,15.3,38.4,6.5C358.2-225.3,361.4-241.3,354.1-253.5z
			"/>
	</g>
	<circle display="inline" fill="#FFFFFF" cx="313.7" cy="-227.5" r="2.6"/>
	<g display="inline">
		<circle fill="#F5EB11" cx="112.9" cy="-207.2" r="11.8"/>
	</g>
	<g display="inline">
		<circle fill="#FDD206" cx="112.9" cy="-207.2" r="7.5"/>
	</g>
	<g display="inline">
		<circle fill="#FFFFFF" cx="112.9" cy="-207.2" r="3.7"/>
	</g>
	<g display="inline">
		<g>
			<circle fill="#F5EB11" cx="159.2" cy="-207.2" r="11.8"/>
		</g>
		<g>
			<circle fill="#FDD206" cx="159.2" cy="-207.2" r="7.5"/>
		</g>
		<g>
			<circle fill="#FFFFFF" cx="159.2" cy="-207.2" r="3.7"/>
		</g>
	</g>
	<g display="inline">
		<path fill="#FDD206" d="M312.6-320c-13.6,2.2-15.4,4-17.6,17.6c-2.2-13.6-4-15.4-17.6-17.6c13.6-2.2,15.4-4,17.6-17.6
			C297.2-324,299-322.2,312.6-320z"/>
	</g>
	<g display="inline">
		<path fill="#F39D39" d="M320.7-290c-7.9,1.3-9,2.3-10.3,10.3c-1.3-7.9-2.3-9-10.3-10.3c7.9-1.3,9-2.3,10.3-10.3
			C311.7-292.3,312.7-291.3,320.7-290z"/>
	</g>
	<g display="inline">
		<path fill="#F5EB11" d="M344.9-310.1c-11.2,1.8-12.6,3.3-14.5,14.5c-1.8-11.2-3.3-12.6-14.5-14.5c11.2-1.8,12.6-3.3,14.5-14.5
			C332.3-313.4,333.7-311.9,344.9-310.1z"/>
	</g>
	<g display="inline">
		<path fill="#333333" d="M198-264.3l-31.5-13.2c-1.6-0.7-2.4-2.5-1.7-4.1h0c0.7-1.6,2.5-2.4,4.1-1.7l31.5,13.2
			c1.6,0.7,2.4,2.5,1.7,4.1l0,0C201.4-264.4,199.6-263.7,198-264.3z"/>
	</g>
	<g display="inline">
		<circle fill="#CEA166" cx="170.3" cy="-279.2" r="8.5"/>
	</g>
	<circle display="inline" fill="#999AA0" cx="170.3" cy="-279.2" r="6"/>
	<circle display="inline" fill="#CEA166" cx="121.6" cy="-304.1" r="7.1"/>
	<circle display="inline" fill="#CEA166" cx="135" cy="-310.1" r="7.1"/>
	<path display="inline" fill="#696969" d="M230.6-271.9h-11.9c-2.5,0-7,0.2-9.7,0.4v-12.9c2.4,0.2,7,0.5,9.7,0.5h11.9h13.7h23.1
		c1.7,0,6.3-0.2,8.6-0.4l0.1,12.7c-2.5-0.3-6.5-0.2-8.3-0.2h-23.4H230.6z"/>
	<path display="inline" fill="#696969" d="M-26.5-302.7l13.4-1.2l1.2,12.6l3.3,34.4l1.3,13.5l-13.5,1.3L-26.5-302.7 M-26.5-302.7"/>
</g>
<g id="Layer_3">
	<g>
		<g>
			<path fill="#939496" d="M46.4,43.7c0,0-0.2-3.5-0.4-5.5l-1.7-17.6c-0.1-1.2-0.3-2.8-0.5-3.9c1.5-0.1,3.1-0.2,4.2-0.3l20.2-2
				c1-0.1,2.4-0.2,3.8-0.4c0,1.2,0.2,2.7,0.3,3.9l1.7,17.7c0.2,1.6,0.6,5.4,0.6,5.4L46.4,43.7z M50.3,21.7l1.5,15.3l16.3-1.6
				l-1.5-15.3L50.3,21.7z"/>
		</g>
	</g>
	<path fill="#696969" d="M96,29.1c-1.7,3.3-5.1,8.1-7,10.2l-4.8-3.2c2.4-2.4,5.2-6.2,6.8-9.4L96,29.1z"/>
	<g>
		<path fill="#939496" d="M104.4,24.2v16.5c0,2.2-1.4,3.7-4.2,3.7c-2.2,0-4.3-0.1-6.3-0.3l-0.5-5.4c1.5,0.3,3.1,0.4,4,0.4
			c0.9,0,1.2-0.3,1.3-1.2c0-1,0-11.7,0-13.7h-8.7c-1.1,0-2.7,0-3.8,0.1v-5.8c1.1,0.1,2.6,0.3,3.8,0.3h8.7v-2.4c0-1-0.2-2.8-0.3-3.5
			h6.5c-0.1,0.5-0.4,2.6-0.4,3.5v2.4h7.8c1.1,0,2.9-0.1,3.9-0.3v5.8c-1.2-0.1-2.8-0.1-3.9-0.1H104.4z"/>
	</g>
	<path fill="#696969" d="M111.8,26.6c1.8,2.3,4.7,7,6.2,9.6l-5.2,2.8c-1.6-3.3-4.2-7.6-5.8-9.8L111.8,26.6z"/>
	<path fill="#696969" d="M130.2,38.4c0,1,0.2,3.9,0.4,5.5h-6.9c0.3-1.6,0.4-4,0.4-5.5V17.6c0-1.5-0.1-3.4-0.4-4.7h6.9
		c-0.1,1.4-0.4,3-0.4,4.7V38.4z"/>
	<g>
		<g>
			<path fill="#939496" d="M161.7,35.4c0,2.1,1.2,2.6,3.9,2.6c3.1,0,6.5-0.2,9.3-0.5l-0.4,6c-2.1,0.1-6.6,0.2-10,0.2
				c-7.3,0-8.9-2.5-8.9-6.6v-6.3h-5.3c-1.1,0-3.1,0.1-4.3,0.2v-5.8c1.1,0.1,3.1,0.2,4.3,0.2h5.3v-5.4h-3.5c-1.3,0-2.6,0-3.7,0.1
				v-5.5c1.1,0.1,2.3,0.2,3.7,0.2h17.7c1.2,0,2.6-0.1,3.4-0.2v5.5c-1,0-2.1-0.1-3.4-0.1h-8.1v5.4H172c0.8,0,2.8-0.1,3.8-0.2l0,5.6
				c-1.1-0.1-2.9-0.1-3.7-0.1h-10.4V35.4z"/>
		</g>
	</g>
	<g>
		<path fill="#F39D39" d="M42.7,20.2c-4.9,1-8.4,5.6-7.9,10.8s4.8,9,9.8,9.1L42.7,20.2z"/>
	</g>
	<g>
		<path fill="#F39D39" d="M73.8,17.2c5,0.1,9.3,3.9,9.8,9.1s-3,9.7-7.9,10.8L73.8,17.2z"/>
	</g>
	<g>
		<circle fill="#F5EB11" cx="57" cy="8.8" r="5.4"/>
	</g>
	<g>
		
			<rect x="52" y="12.3" transform="matrix(0.9953 -9.673208e-02 9.673208e-02 0.9953 -1.0127 5.6351)" fill="#D2D3D3" width="11.1" height="1.9"/>
	</g>
	<g>
		<path fill="#FDD206" d="M185.1,8.5c-6,1-6.8,1.8-7.8,7.8c-1-6-1.8-6.8-7.8-7.8c6-1,6.8-1.8,7.8-7.8C178.2,6.7,179,7.5,185.1,8.5z"
			/>
	</g>
	<g>
		<path fill="#F39D39" d="M188.7,21.8c-3.5,0.6-4,1-4.6,4.6c-0.6-3.5-1-4-4.6-4.6c3.5-0.6,4-1,4.6-4.6
			C184.7,20.8,185.1,21.3,188.7,21.8z"/>
	</g>
	<g>
		<path fill="#F5EB11" d="M199.5,12.9c-5,0.8-5.6,1.5-6.4,6.4c-0.8-5-1.5-5.6-6.4-6.4c5-0.8,5.6-1.5,6.4-6.4
			C193.8,11.4,194.5,12.1,199.5,12.9z"/>
	</g>
	<g>
		<path fill="#333333" d="M142.5,34.2l-14-5.9c-0.7-0.3-1-1.1-0.8-1.8v0c0.3-0.7,1.1-1,1.8-0.8l14,5.9c0.7,0.3,1,1.1,0.8,1.8v0
			C144,34.1,143.2,34.4,142.5,34.2z"/>
	</g>
	<g>
		<circle fill="#CEA166" cx="130.1" cy="27.5" r="3.8"/>
	</g>
	<circle fill="#999AA0" cx="130.1" cy="27.5" r="2.7"/>
	<circle fill="#CEA166" cx="110.2" cy="16.4" r="3.2"/>
	<circle fill="#CEA166" cx="116.2" cy="13.8" r="3.2"/>
	<path fill="#696969" d="M155.7,30.8h-5.3c-1.1,0-3.1,0.1-4.3,0.2v-5.8c1.1,0.1,3.1,0.2,4.3,0.2h5.3h6.1H172c0.8,0,2.8-0.1,3.8-0.2
		l0,5.6c-1.1-0.1-2.9-0.1-3.7-0.1h-10.4H155.7z"/>
	<path fill="#696969" d="M43.8,16.6l6-0.5l0.5,5.6l1.5,15.3l0.6,6l-6,0.6L43.8,16.6 M43.8,16.6"/>
</g>
<g id="Layer_5" display="none">
	<path display="inline" fill="#696969" d="M27.1,141.7l-4.4-8.5h-2.8v8.5h-5.8v-24.1H23c5.1,0,9.4,1.7,9.4,7.6c0,3.5-1.7,5.8-4.1,7
		l5.4,9.5H27.1z M19.9,128.6h2.6c2.8,0,4.2-1.2,4.2-3.5s-1.5-3-4.2-3h-2.6V128.6z"/>
	<g display="inline">
		<g>
			<path fill="#939496" d="M35.9,129.5c0-7.9,4.5-12.4,11-12.4c6.6,0,11,4.5,11,12.4c0,7.9-4.5,12.6-11,12.6
				C40.4,142.1,35.9,137.4,35.9,129.5z M52.1,129.5c0-4.7-2-7.4-5.1-7.4c-3.2,0-5.1,2.8-5.1,7.4c0,4.7,1.9,7.6,5.1,7.6
				C50.1,137.1,52.1,134.2,52.1,129.5z"/>
		</g>
	</g>
	<path display="inline" fill="#696969" d="M62.5,117.6h8.4c5,0,9,1.3,9,6c0,2.1-1.2,4.5-3.1,5.2v0.1c2.4,0.6,4.3,2.5,4.3,5.7
		c0,4.9-4.2,7.1-9.4,7.1h-9.1V117.6z M70.7,127.1c2.5,0,3.6-1.1,3.6-2.7c0-1.7-1.1-2.4-3.6-2.4h-2.4v5.1H70.7z M71.2,137.2
		c2.8,0,4.2-1,4.2-3.1c0-2-1.4-2.8-4.2-2.8h-2.9v5.8H71.2z"/>
	<path display="inline" fill="#696969" d="M115.1,122.4h-6.5v-4.8h18.8v4.8h-6.5v19.3h-5.8V122.4z"/>
	<path display="inline" fill="#696969" d="M156.6,117.6h6.2l3.8,10.4c0.5,1.4,0.9,2.9,1.3,4.4h0.2c0.5-1.5,0.9-3,1.3-4.4l3.7-10.4
		h6.3v24.1h-5.3v-8.3c0-2.4,0.5-6,0.7-8.4h-0.1l-2,5.8l-3.2,8.8h-3.2l-3.3-8.8l-1.9-5.8H161c0.3,2.4,0.7,6,0.7,8.4v8.3h-5.2V117.6z"
		/>
	<g display="inline">
		<g>
			<path fill="#939496" d="M183.9,129.5c0-7.9,4.5-12.4,11-12.4c6.6,0,11,4.5,11,12.4c0,7.9-4.5,12.6-11,12.6
				C188.3,142.1,183.9,137.4,183.9,129.5z M200,129.5c0-4.7-2-7.4-5.1-7.4c-3.2,0-5.1,2.8-5.1,7.4c0,4.7,1.9,7.6,5.1,7.6
				C198.1,137.1,200,134.2,200,129.5z"/>
		</g>
	</g>
	<g display="inline">
		<circle fill="#F5EB11" cx="94.8" cy="129.5" r="11.8"/>
	</g>
	<g display="inline">
		<circle fill="#FDD206" cx="94.8" cy="129.5" r="7.5"/>
	</g>
	<g display="inline">
		<circle fill="#FFFFFF" cx="94.8" cy="129.5" r="3.7"/>
	</g>
	<g display="inline">
		<g>
			<circle fill="#F5EB11" cx="141.1" cy="129.5" r="11.8"/>
		</g>
		<g>
			<circle fill="#FDD206" cx="141.1" cy="129.5" r="7.5"/>
		</g>
		<g>
			<circle fill="#FFFFFF" cx="141.1" cy="129.5" r="3.7"/>
		</g>
	</g>
</g>
<g id="Layer_4">
	<g>
		<rect x="16.7" y="40.2" transform="matrix(0.746 -0.666 0.666 0.746 -22.144 25.3809)" fill="#CEA166" width="11.1" height="3"/>
	</g>
	<g>
		
			<rect x="22.5" y="43.2" transform="matrix(0.5399 -0.8417 0.8417 0.5399 -25.4968 41.9779)" fill="#D2D2D2" width="6.3" height="2.2"/>
	</g>
	<g>
		
			<rect x="26.4" y="44.7" transform="matrix(0.2444 -0.9697 0.9697 0.2444 -22.1224 63.2467)" fill="#D2D2D2" width="6.3" height="2.2"/>
	</g>
	<g>
		<rect x="32.1" y="43" fill="#D2D2D2" width="2.2" height="6.3"/>
	</g>
	<g>
		<rect x="35.6" y="43" fill="#D2D2D2" width="2.2" height="6.3"/>
	</g>
	<g>
		<rect x="39" y="43" fill="#D2D2D2" width="2.2" height="6.3"/>
	</g>
	<g>
		<path fill="#D2D2D2" d="M16.8,26.3c1.7,2,1.9,4.7,0.7,6.9c1.4-0.2,2.8,0.2,3.8,1.3c0.7,0.8,1,1.8,1,2.8c3.2-4.5,3.1-10.7-0.7-15.1
			c-4.2-4.9-11.4-5.7-16.5-1.9l3.4,5.2C11,23.5,14.7,23.9,16.8,26.3z"/>
	</g>
	<g>
		<path fill="#D2D2D2" d="M20.6,35.2c-1.1-1.3-3.1-1.5-4.4-0.3l0,0c0,0,0,0,0,0c-2.5,2.2-6.3,1.9-8.5-0.6c-2.1-2.5-1.9-6.2,0.5-8.4
			l-4.6-4.2C-0.9,26.1-1.2,33.4,3,38.3c4.4,5.1,12.2,5.7,17.3,1.3c0,0,0,0,0,0C21.6,38.5,21.7,36.5,20.6,35.2z"/>
	</g>
	<circle fill="#FFFFFF" cx="18.2" cy="37.2" r="1.2"/>
	<g>
		
			<rect x="194.8" y="36.2" transform="matrix(0.666 -0.746 0.746 0.666 34.4521 160.3768)" fill="#CEA166" width="3" height="11.1"/>
	</g>
	<g>
		
			<rect x="191.7" y="41.2" transform="matrix(0.8417 -0.5399 0.5399 0.8417 6.6005 111.1392)" fill="#D2D2D2" width="2.2" height="6.3"/>
	</g>
	<g>
		
			<rect x="187.9" y="42.7" transform="matrix(0.9697 -0.2444 0.2444 0.9697 -5.4669 47.5744)" fill="#D2D2D2" width="2.2" height="6.3"/>
	</g>
	<g>
		<rect x="184.2" y="43" fill="#D2D2D2" width="2.2" height="6.3"/>
	</g>
	<g>
		<rect x="180.6" y="43" fill="#D2D2D2" width="2.2" height="6.3"/>
	</g>
	<g>
		<rect x="177.3" y="43" fill="#D2D2D2" width="2.2" height="6.3"/>
	</g>
	<g>
		<path fill="#D2D2D2" d="M192.2,24c-2,5.2-0.1,10.9,4.1,14.1c-0.3-1.2,0-2.5,0.9-3.5c0.8-0.9,1.9-1.4,3-1.4c-2.2-1.6-3.1-4.4-2.1-7
			c1.1-3.1,4.5-4.6,7.6-3.6l1.4-6.1C201,14.8,194.5,18,192.2,24z"/>
	</g>
	<g>
		<path fill="#D2D2D2" d="M218.3,25.6l-5.5,2.9c1.8,2.7,1.2,6.4-1.5,8.3c-2.7,1.9-6.5,1.3-8.4-1.4c0,0,0,0,0,0l0,0
			c-1-1.4-2.9-1.7-4.3-0.7c-1.4,1-1.7,2.9-0.7,4.3c0,0,0,0,0,0c3.9,5.5,11.6,6.8,17.1,2.9C220.1,38.2,221.5,31.1,218.3,25.6z"/>
	</g>
	<circle fill="#FFFFFF" cx="200.3" cy="37.2" r="1.2"/>
</g>
</svg>
