<svg xmlns="http://www.w3.org/2000/svg" width="236" height="65" viewBox="0 0 236 65" xml:space="preserve"><path fill="#FFF" d="M193.1 16c-6 1-6.8 1.8-7.8 7.8-1-6-1.8-6.8-7.8-7.8 6-1 6.8-1.8 7.8-7.8.9 6 1.7 6.8 7.8 7.8z"/><path fill="#FFF" d="M185.2 8.2c1 6 1.8 6.8 7.8 7.8-6 1-6.8 1.8-7.8 7.8-1-6-1.8-6.8-7.8-7.8 6.1-1 6.9-1.8 7.8-7.8m0-8a8 8 0 0 0-7.9 6.7l-.2 1-1 .2c-3.9.6-6.7 4-6.7 7.9s2.8 7.3 6.7 7.9l1 .2.2 1c.6 3.9 4 6.7 7.9 6.7s7.3-2.8 7.9-6.7l.2-1 1-.2c3.9-.6 6.7-4 6.7-7.9s-2.8-7.3-6.7-7.9l-1-.2-.2-1a7.9 7.9 0 0 0-7.9-6.7z"/><path fill="#FFF" d="M196.7 29.3c-3.5.6-4 1-4.6 4.6-.6-3.5-1-4-4.6-4.6 3.5-.6 4-1 4.6-4.6.6 3.6 1 4.1 4.6 4.6z"/><path fill="#FFF" d="M192.1 24.7c.6 3.5 1 4 4.6 4.6-3.5.6-4 1-4.6 4.6-.6-3.5-1-4-4.6-4.6 3.6-.5 4-1 4.6-4.6m0-8a8 8 0 0 0-7.5 5.1 8 8 0 0 0 0 15 8 8 0 0 0 15 0 8 8 0 0 0 0-15 8 8 0 0 0-7.5-5.1z"/><path fill="#FFF" d="M207.5 20.4c-5 .8-5.6 1.5-6.4 6.4-.8-5-1.5-5.6-6.4-6.4 5-.8 5.6-1.5 6.4-6.4.7 4.9 1.4 5.6 6.4 6.4z"/><path fill="#FFF" d="M201 13.9c.8 5 1.5 5.6 6.4 6.4-5 .8-5.6 1.5-6.4 6.4-.8-5-1.5-5.6-6.4-6.4 5-.7 5.6-1.4 6.4-6.4m0-8a8 8 0 0 0-7.9 6.6 8 8 0 0 0 0 15.8 8 8 0 0 0 15.8 0 8 8 0 0 0 0-15.8 8 8 0 0 0-7.9-6.6z"/><g fill="#FFF"><path d="m80.3 25.3-.3-3.9-3.8.4-18.4 1.8-6 .5 2.6 27.1 28.3-2.7-.6-5.4-1.8-17.8zM59.8 44.6l-1.5-15.3 16.3-1.6L76.1 43l-16.3 1.6z"/><path d="m80 21.4.3 3.9L82.1 43l.6 5.4-28.3 2.7L51.8 24l6-.5 18.4-1.8 3.8-.3M59.8 44.6 76.1 43l-1.5-15.3-16.3 1.6 1.5 15.3M80 13.4l-1 .1-3.6.4-18 1.8h-.3l-6 .5c-2.1.1-4.1 1.2-5.4 2.8s-2 3.8-1.8 5.9L46.5 52c.2 2.1 1.2 4 2.8 5.3a8.3 8.3 0 0 0 5.2 1.9h.8l28.3-2.7a8.5 8.5 0 0 0 5.5-2.9 8 8 0 0 0 1.7-5.9l-.6-5.2-1.7-17.7-.3-3.4a8.2 8.2 0 0 0-2.8-5.8 7.8 7.8 0 0 0-5.4-2.2zM98.9 34.2c-1.5 3.2-4.3 7-6.8 9.4l4.8 3.2c1.9-2.1 5.3-7 7-10.2l-5-2.4z"/><path d="m98.9 34.2 5 2.4a60.4 60.4 0 0 1-7 10.2l-4.8-3.2c2.5-2.4 5.3-6.2 6.8-9.4m0-8a8 8 0 0 0-7.2 4.5 29.8 29.8 0 0 1-5.1 7.1 8 8 0 0 0-2.4 6.4 7.8 7.8 0 0 0 3.5 5.9l4.8 3.2a8 8 0 0 0 10.4-1.2 69 69 0 0 0 8.2-11.9c1-1.9 1.2-4.2.5-6.3a7.8 7.8 0 0 0-4.2-4.7l-5-2.4c-1.2-.3-2.3-.6-3.5-.6z"/><path d="M124.2 31.8V26l-3.9.3a3 3 0 0 0 1.1-2.4c0-1.8-1.4-3.2-3.2-3.2a3.2 3.2 0 0 0-2.1 5.6h-3.7v-2.4c0-1 .3-3 .4-3.5h-6.5l.3 3.5v2.4h-8.7c-1.1 0-2.6-.1-3.8-.3v5.8l3.8-.1h8.7v13.7c0 .9-.4 1.2-1.3 1.2s-2.4-.1-4-.4l.5 5.4c2 .3 4.2.3 6.3.3 2.8 0 4.2-1.5 4.2-3.7V31.7h7.9l4 .1z"/><path d="M112.8 20.4c-.1.5-.4 2.6-.4 3.5v2.4h3.7a3 3 0 0 1-1.1-2.4c0-1.8 1.4-3.2 3.2-3.2a3.2 3.2 0 0 1 2.1 5.6c1.1 0 2.9-.1 3.9-.3v5.8l-3.9-.1h-7.9v16.5c0 2.2-1.4 3.7-4.2 3.7-2.2 0-4.3-.1-6.3-.3l-.5-5.4c1.5.3 3.1.4 4 .4.9 0 1.2-.3 1.3-1.2V31.7H98l-3.8.1V26l3.8.3h8.7v-2.4l-.3-3.5h6.4m0-8h-6.5a8 8 0 0 0-7.7 6h-.7l-2.7-.2-1-.1a8 8 0 0 0-8 8v5.8a8 8 0 0 0 2.6 5.9 8.3 8.3 0 0 0 5.4 2.1h.8l1.7-.1-.7.6a8 8 0 0 0-2.6 6.7l.5 5.4a8 8 0 0 0 7 7.1c2.1.3 4.5.4 7.3.4 7.1 0 12.2-4.9 12.2-11.7v-8.5l3.1.1h.7c2 0 3.9-.7 5.4-2.1a7.9 7.9 0 0 0 2.6-5.9V26c0-2.3-1-4.5-2.8-6l-1.1-.8a11.1 11.1 0 0 0-10.1-6.4l-2.3.2c-.9-.4-2-.6-3.1-.6z"/><path d="M115 36.7c1.7 2.2 4.2 6.6 5.8 9.8l5.2-2.8a92.9 92.9 0 0 0-6.2-9.6l-4.8 2.6z"/><path d="M119.8 34.1c1.8 2.3 4.7 7 6.2 9.6l-5.2 2.8a77 77 0 0 0-5.8-9.8l4.8-2.6m0-8c-1.3 0-2.6.3-3.8 1l-4.8 2.6a8 8 0 0 0-2.6 11.8c1.2 1.7 3.5 5.5 5.1 8.6 1 1.9 2.7 3.4 4.8 4.1.8.2 1.6.4 2.4.4 1.3 0 2.7-.3 3.9-1l5.2-2.8a8 8 0 0 0 3.2-10.9c-1.6-3-4.8-8-6.9-10.7a8.3 8.3 0 0 0-6.5-3.1zM42.8 38.5c.5 5.1 4.8 9 9.8 9.1l-1.9-19.8a9.8 9.8 0 0 0-7.9 10.7z"/><path d="m50.7 27.7 1.9 19.8a10 10 0 0 1-9.8-9.1 10 10 0 0 1 7.9-10.7m0-8-1.6.2a18 18 0 0 0-14.2 19.4 18 18 0 0 0 17.7 16.3h.1c2.2 0 4.4-.9 5.9-2.6a8.3 8.3 0 0 0 2.1-6.2L58.8 27a8.1 8.1 0 0 0-8.1-7.3zM81.8 24.7l1.9 19.8a10 10 0 0 0-1.9-19.8z"/><path d="M81.8 24.7a10 10 0 0 1 1.9 19.9l-1.9-19.9m0-8c-2.2 0-4.4.9-5.9 2.6a8.3 8.3 0 0 0-2.1 6.2l1.9 19.8a8.1 8.1 0 0 0 7.9 7.3l1.6-.2A18 18 0 0 0 99.4 33a18 18 0 0 0-17.7-16.3h.1zM61.3 20.2l-1.3.2.2 1.8 11.1-1.1-.2-1.8-1.7.2c.7-1 1.1-2.3 1-3.6-.3-3-2.9-5.1-5.9-4.8a5.3 5.3 0 0 0-3.2 9.1z"/><path d="M65 11c2.7 0 5.1 2.1 5.4 4.9a5 5 0 0 1-1 3.6l1.7-.2.2 1.8-11.1 1.1-.2-1.8 1.3-.1c-.9-.9-1.5-2-1.7-3.4-.3-3 1.9-5.6 4.8-5.9h.6m0-8-1.3.1c-7.3.7-12.7 7.3-12 14.6l.3 2v1.5l.2 1.8a8 8 0 0 0 8 7.2h.8l11-1.1a7.7 7.7 0 0 0 5.4-2.9c1.3-1.6 2-3.7 1.8-5.9l-.2-1.8c-.1-.9-.3-1.7-.7-2.5l-.1-1C77.6 8.2 71.9 3 65 3zM151.5 39.1l-9.6-4c0-2.1-1.7-3.8-3.8-3.8v-6.2c0-1.7.2-3.4.4-4.7h-6.9c.3 1.4.4 3.3.4 4.7v20.8c0 1.5-.2 3.9-.4 5.5h6.9l-.4-5.5v-7c1.1 0 2-.5 2.7-1.2l9.6 4c.7.3 1.5 0 1.8-.8s.1-1.5-.7-1.8z"/><path d="M138.5 20.3c-.1 1.4-.4 3-.4 4.7v6.2c2.1 0 3.8 1.7 3.8 3.8l9.6 4c.7.3 1 1.1.8 1.8-.2.5-.7.9-1.3.9l-.5-.1-9.6-4c-.7.7-1.6 1.2-2.7 1.2v7l.4 5.5h-6.9c.3-1.6.4-4 .4-5.5V25.1c0-1.5-.1-3.4-.4-4.7h6.8m0-8.1h-6.9a8 8 0 0 0-7.8 9.7c.2.7.3 2 .3 3.1v20.8l-.3 4.2c-.4 2.3.3 4.7 1.8 6.5s3.7 2.8 6.1 2.8h6.9c2.3 0 4.4-1 6-2.7 1.5-1.7 2.2-4 2-6.2l-.2-1.9 1 .4a9.5 9.5 0 0 0 12.3-5.1 9 9 0 0 0 0-7.2 9.8 9.8 0 0 0-5.1-5.1l-6.3-2.6c-.6-1-1.3-1.8-2.1-2.6V25l.2-3.1.1-.5.1-1.1c-.1-4.4-3.6-8-8.1-8z"/><path d="M124.2 18.1a3.2 3.2 0 0 0-3.2 3.2c0 1.8 1.4 3.2 3.2 3.2 1.8 0 3.2-1.4 3.2-3.2 0-1.8-1.4-3.2-3.2-3.2z"/><path d="M124.2 18.1c1.8 0 3.2 1.4 3.2 3.2 0 1.8-1.4 3.2-3.2 3.2a3.2 3.2 0 0 1-3.2-3.2c0-1.8 1.5-3.2 3.2-3.2m0-8a11.2 11.2 0 1 0 0 22.4 11.2 11.2 0 0 0 0-22.4zM180.2 38.3l3.7.1v-5.6l-3.8.2h-10.3v-5.4h8.1l3.4.1v-5.5l-3.4.2h-17.7l-3.7-.2v5.5l3.7-.1h3.5V33h-5.3a59 59 0 0 1-4.3-.2v5.8l4.3-.2h5.3v6.3c0 4.1 1.6 6.6 8.9 6.6l10-.2.4-6c-2.8.3-6.2.5-9.3.5-2.7 0-3.9-.5-3.9-2.6v-4.6h10.4z"/><path d="M181.2 22.2v5.5l-3.4-.1h-8.1V33H180l3.8-.2v5.6l-2.6-.1h-11.5v4.6c0 2.1 1.2 2.6 3.9 2.6 3.1 0 6.5-.2 9.3-.5l-.4 6-10 .2c-7.3 0-8.9-2.5-8.9-6.6v-6.3h-5.3l-4.3.2v-5.8l4.3.2h5.3v-5.4h-3.5l-3.7.1v-5.5l3.7.2h17.7c1.2.1 2.6 0 3.4-.1m0-8-1 .1-2.4.1h-17.7l-2.4-.1-.8-.1h-.5c-2 0-4 .8-5.5 2.2a8 8 0 0 0-2.5 5.8V27a8.2 8.2 0 0 0-2.4 5.7v5.8a8 8 0 0 0 8 8h.5l1.2-.1c.5 5.4 3.6 12.8 16.8 12.8l10.4-.2a8 8 0 0 0 7.6-7.5l.4-6c.1-.9 0-1.9-.3-2.8a8.4 8.4 0 0 0 1.3-4.4v-5.6c0-2.2-.9-4.3-2.6-5.8l-.1-.1v-4.6a8 8 0 0 0-8-8zM25 51.7l8.4-7.3 2 2.2L27 54z"/><path d="m33.3 44.4 2 2.2-8.2 7.4-2-2.2 8.2-7.4m0-8c-2 0-3.9.7-5.3 2l-8.2 7.4a8 8 0 0 0-.6 11.3l2 2.2a8.3 8.3 0 0 0 5.5 2.7h.5c2 0 3.9-.7 5.3-2l8.2-7.4a8 8 0 0 0 .6-11.3l-2-2.2a8.3 8.3 0 0 0-5.5-2.7h-.5z"/><path d="m31 53.9 3.4-5.3 1.9 1.1-3.4 5.3z"/><path d="m34.4 48.6 1.9 1.2-3.4 5.3-1.9-1.2 3.4-5.3m0-8-1.7.2a7.9 7.9 0 0 0-5 3.5l-3.4 5.3a8 8 0 0 0 2.4 11.1l1.9 1.2c1.3.8 2.8 1.3 4.3 1.3l1.7-.2a7.9 7.9 0 0 0 5-3.5l3.4-5.3c1.1-1.8 1.5-4 1.1-6a7.9 7.9 0 0 0-3.5-5L38.7 42a7 7 0 0 0-4.3-1.4z"/><path d="m35.7 56 1.5-6 2.1.5-1.5 6.1z"/><path d="m37.2 50 2.2.5-1.5 6.1-2.2-.5 1.5-6.1m0-8c-1.4 0-2.9.4-4.1 1.1a8 8 0 0 0-3.6 4.9L28 54.1c-.5 2.1-.2 4.2.9 6.1a8.7 8.7 0 0 0 4.9 3.7l2.2.5c.6.2 1.3.2 2 .2 1.4 0 2.9-.4 4.1-1.1a8.7 8.7 0 0 0 3.7-4.9l1.5-6.1a8 8 0 0 0-5.8-9.7l-2.2-.5-2.1-.3z"/><path d="M40.1 50.5h2.2v6.3h-2.2z"/><path d="M42.3 50.5v6.3h-2.2v-6.3h2.2m0-8h-2.2a8 8 0 0 0-8 8v6.3a8 8 0 0 0 8 8h2.2a8 8 0 0 0 8-8v-6.3a8 8 0 0 0-8-8z"/><path d="M43.6 50.5h2.2v6.3h-2.2z"/><path d="M45.9 50.5v6.3h-2.2v-6.3h2.2m0-8h-2.2a8 8 0 0 0-8 8v6.3a8 8 0 0 0 8 8h2.2a8 8 0 0 0 8-8v-6.3a8 8 0 0 0-8-8z"/><path d="M47 50.5h2.2v6.3H47z"/><path d="M49.2 50.5v6.3H47v-6.3h2.2m0-8H47a8 8 0 0 0-8 8v6.3a8 8 0 0 0 8 8h2.2a8 8 0 0 0 8-8v-6.3a8 8 0 0 0-8-8zM24.8 33.8a6 6 0 0 1 .7 6.9c1.4-.2 2.8.2 3.8 1.3.7.8 1 1.8 1 2.8a12.2 12.2 0 0 0-.7-15.1 12.2 12.2 0 0 0-16.5-1.9l3.4 5.2a6 6 0 0 1 8.3.8z"/><path d="M20.3 25.5a12.3 12.3 0 0 1 10 19.4c0-1-.3-2-1-2.8a4.1 4.1 0 0 0-3.1-1.4l-.7.1a6 6 0 0 0-9.1-7.7L13 27.9c2.2-1.6 4.7-2.4 7.3-2.4m0-8c-4.3 0-8.4 1.3-11.9 3.9a8.1 8.1 0 0 0-2 10.9l3.4 5.2a7.7 7.7 0 0 0 5.4 3.5l1.2.1 1-.1a8 8 0 0 0 5.6 7.4 7.8 7.8 0 0 0 7.2 4.5c2.5 0 5-1.2 6.5-3.4 5.4-7.6 5-17.9-1.1-24.9a20 20 0 0 0-15.3-7.1z"/><path d="M28.2 47.1c1.3-1.1 1.5-3.1.3-4.4s-3.1-1.5-4.4-.3a6 6 0 0 1-8-9l-4.6-4.2a12.3 12.3 0 0 0-.5 16.6 12.2 12.2 0 0 0 17.2 1.3z"/><path d="m11.6 29.1 4.6 4.2a6 6 0 0 0 4.1 10.5c1.4 0 2.8-.5 3.9-1.5.6-.5 1.3-.8 2-.8.9 0 1.7.4 2.4 1.1 1.1 1.3 1 3.3-.3 4.4a12.3 12.3 0 0 1-16.7-17.9m0-8a8 8 0 0 0-5.7 2.4 20.3 20.3 0 0 0 27.6 29.7c4.6-4 5.1-11 1.2-15.6a11 11 0 0 0-10.4-3.7v-.5a8 8 0 0 0-2.6-5.9l-4.6-4.2a8.2 8.2 0 0 0-5.5-2.2zM199.2 46.7l2-2.3 8.3 7.4-2 2.3z"/><path d="m201.2 44.4 8.2 7.4-2 2.2-8.2-7.4 2-2.2m0-8h-.5a7.9 7.9 0 0 0-5.5 2.7l-2 2.2a8 8 0 0 0 .6 11.3L202 60c1.5 1.3 3.4 2 5.3 2h.5a7.9 7.9 0 0 0 5.5-2.7l2-2.2a8 8 0 0 0-.6-11.3l-8.2-7.4a8.1 8.1 0 0 0-5.3-2z"/><path d="m198.2 49.8 1.8-1.2 3.5 5.3-1.9 1.2z"/><path d="m200.1 48.6 3.4 5.3-1.9 1.2-3.4-5.3 1.9-1.2m0-8c-1.5 0-3 .4-4.3 1.3l-1.9 1.2c-1.8 1.1-3 3-3.5 5a7.5 7.5 0 0 0 1.1 6l3.4 5.3c1.1 1.8 3 3 5 3.5l1.7.2c1.5 0 3-.4 4.3-1.3l1.9-1.2a8 8 0 0 0 2.4-11.1l-3.4-5.3c-1.1-1.8-3-3-5-3.5l-1.7-.1z"/><path d="m195.2 50.6 2.1-.6 1.5 6.1-2 .6z"/><path d="m197.3 50 1.5 6.1-2.2.5-1.5-6.1 2.2-.5m0-8-2 .2-2.2.5a8 8 0 0 0-5.8 9.7l1.5 6.1a7.6 7.6 0 0 0 3.7 4.9c1.3.7 2.7 1.1 4.1 1.1l2-.2 2.2-.5a7.6 7.6 0 0 0 4.9-3.7c1.1-1.8 1.4-4 .9-6.1l-1.6-6a8 8 0 0 0-7.7-6z"/><path d="M192.2 50.5h2.2v6.3h-2.2z"/><path d="M194.4 50.5v6.3h-2.2v-6.3h2.2m0-8h-2.2a8 8 0 0 0-8 8v6.3a8 8 0 0 0 8 8h2.2a8 8 0 0 0 8-8v-6.3a8 8 0 0 0-8-8z"/><path d="M188.6 50.5h2.2v6.3h-2.2z"/><path d="M190.9 50.5v6.3h-2.2v-6.3h2.2m0-8h-2.2a8 8 0 0 0-8 8v6.3a8 8 0 0 0 8 8h2.2a8 8 0 0 0 8-8v-6.3a8 8 0 0 0-8-8z"/><path d="M185.3 50.5h2.2v6.3h-2.2z"/><path d="M187.5 50.5v6.3h-2.2v-6.3h2.2m0-8h-2.2a8 8 0 0 0-8 8v6.3a8 8 0 0 0 8 8h2.2a8 8 0 0 0 8-8v-6.3a8 8 0 0 0-8-8zM204.3 45.6c-.3-1.2 0-2.5.9-3.5a4 4 0 0 1 3-1.4 5.9 5.9 0 0 1-2.1-7 6 6 0 0 1 7.6-3.6l1.4-6.1a12.2 12.2 0 0 0-14.8 7.5c-2 5.2-.2 10.9 4 14.1z"/><path d="M211.7 23.5c1.1 0 2.2.2 3.4.5l-1.4 6.1a6 6 0 0 0-5.4 10.6 4 4 0 0 0-3.9 4.9 12.3 12.3 0 0 1-4.1-14.1c1.8-4.9 6.4-8 11.4-8m0-8c-8.4 0-16 5.3-19 13.2-3.1 8.4-.3 18 6.8 23.3a8 8 0 0 0 12.6-4.4c1.8-1 3.1-2.6 3.7-4.6.5-1.7.5-3.6-.2-5.2l1.9-.7a8 8 0 0 0 3.9-5.2l1.4-6.1a8 8 0 0 0-5.6-9.5c-1.8-.5-3.6-.8-5.5-.8z"/><path d="m226.3 33.1-5.5 2.9a6 6 0 0 1-9.9 6.9c-1-1.4-2.9-1.7-4.3-.7s-1.7 2.9-.7 4.3a12.3 12.3 0 0 0 17.1 2.9 12.4 12.4 0 0 0 3.3-16.3z"/><path d="M226.3 33.1a12.3 12.3 0 0 1-10.5 18.6c-3.8 0-7.6-1.8-10-5.2a3 3 0 0 1 .7-4.3 3 3 0 0 1 1.8-.6c1 0 1.9.5 2.5 1.3 1.2 1.7 3 2.5 4.9 2.5 1.2 0 2.4-.4 3.5-1.1a6 6 0 0 0 1.5-8.3l5.6-2.9m0-8c-1.3 0-2.6.3-3.8.9l-5.5 3a8.2 8.2 0 0 0-4 5.1l-.1.5c-1.4-.6-3-1-4.6-1a11.1 11.1 0 0 0-9 17.5v.1c3.8 5.3 10 8.5 16.5 8.5A20.4 20.4 0 0 0 233.1 29a8 8 0 0 0-6.8-3.9z"/></g><path fill="#939496" d="m54.4 51.2-.4-5.5-1.7-17.6a46 46 0 0 0-.5-3.9l4.2-.3 20.2-2 3.8-.4.3 3.9L82.1 43l.6 5.4-28.3 2.8zm3.9-22 1.5 15.3L76.1 43l-1.5-15.3-16.3 1.5z"/><path fill="#696969" d="M104 36.6a60.4 60.4 0 0 1-7 10.2l-4.8-3.2c2.4-2.4 5.2-6.2 6.8-9.4l5 2.4z"/><path fill="#939496" d="M112.4 31.7v16.5c0 2.2-1.4 3.7-4.2 3.7-2.2 0-4.3-.1-6.3-.3l-.5-5.4c1.5.3 3.1.4 4 .4.9 0 1.2-.3 1.3-1.2V31.7H98l-3.8.1V26l3.8.3h8.7v-2.4l-.3-3.5h6.5c-.1.5-.4 2.6-.4 3.5v2.4h7.8c1.1 0 2.9-.1 3.9-.3v5.8l-3.9-.1h-7.9z"/><path fill="#696969" d="M119.8 34.1c1.8 2.3 4.7 7 6.2 9.6l-5.2 2.8a77 77 0 0 0-5.8-9.8l4.8-2.6zM138.2 45.9l.4 5.5h-6.9c.3-1.6.4-4 .4-5.5V25.1c0-1.5-.1-3.4-.4-4.7h6.9c-.1 1.4-.4 3-.4 4.7v20.8z"/><path fill="#939496" d="M169.7 42.9c0 2.1 1.2 2.6 3.9 2.6 3.1 0 6.5-.2 9.3-.5l-.4 6-10 .2c-7.3 0-8.9-2.5-8.9-6.6v-6.3h-5.3l-4.3.2v-5.8l4.3.2h5.3v-5.4h-3.5l-3.7.1v-5.5l3.7.2h17.7l3.4-.2v5.5l-3.4-.1h-8.1v5.4H180l3.8-.2v5.6l-3.7-.1h-10.4v4.7z"/><path fill="#F39D39" d="M50.7 27.7a10 10 0 0 0 1.9 19.9l-1.9-19.9zM81.8 24.7a10 10 0 0 1 1.9 19.9l-1.9-19.9z"/><circle fill="#F5EB11" cx="65" cy="16.3" r="5.4"/><path fill="#D2D3D3" d="m60 20.3 11-1 .2 1.9-11 1z"/><path fill="#FDD206" d="M193.1 16c-6 1-6.8 1.8-7.8 7.8-1-6-1.8-6.8-7.8-7.8 6-1 6.8-1.8 7.8-7.8.9 6 1.7 6.8 7.8 7.8z"/><path fill="#F39D39" d="M196.7 29.3c-3.5.6-4 1-4.6 4.6-.6-3.5-1-4-4.6-4.6 3.5-.6 4-1 4.6-4.6.6 3.6 1 4.1 4.6 4.6z"/><path fill="#F5EB11" d="M207.5 20.4c-5 .8-5.6 1.5-6.4 6.4-.8-5-1.5-5.6-6.4-6.4 5-.8 5.6-1.5 6.4-6.4.7 4.9 1.4 5.6 6.4 6.4z"/><path fill="#333" d="m150.5 41.7-14-5.9c-.7-.3-1-1.1-.8-1.8.3-.7 1.1-1 1.8-.8l14 5.9c.7.3 1 1.1.8 1.8-.3.7-1.1 1-1.8.8z"/><circle fill="#CEA166" cx="138.1" cy="35" r="3.8"/><circle fill="#999AA0" cx="138.1" cy="35" r="2.7"/><circle fill="#CEA166" cx="118.2" cy="23.9" r="3.2"/><circle fill="#CEA166" cx="124.2" cy="21.3" r="3.2"/><path fill="#696969" d="M163.7 38.3h-5.3l-4.3.2v-5.8l4.3.2H180l3.8-.2v5.6l-3.7-.1h-16.4zM51.8 24.1l6-.5.5 5.6 1.5 15.3.6 6-6 .6-2.6-27m0 0"/><path fill="#CEA166" d="m25 51.7 8.4-7.3 2 2.2L27 54z"/><path fill="#D2D2D2" d="m31 53.9 3.4-5.3 1.9 1.1-3.4 5.3zM35.7 56l1.5-6 2.1.5-1.5 6.1zM40.1 50.5h2.2v6.3h-2.2zM43.6 50.5h2.2v6.3h-2.2zM47 50.5h2.2v6.3H47zM24.8 33.8a6 6 0 0 1 .7 6.9c1.4-.2 2.8.2 3.8 1.3.7.8 1 1.8 1 2.8a12.2 12.2 0 0 0-.7-15.1 12.2 12.2 0 0 0-16.5-1.9l3.4 5.2a6 6 0 0 1 8.3.8z"/><path fill="#D2D2D2" d="M28.6 42.7a3 3 0 0 0-4.4-.3 6 6 0 0 1-8-9l-4.6-4.2a12.2 12.2 0 0 0-.6 16.6 12.3 12.3 0 0 0 17.3 1.3 3.1 3.1 0 0 0 .3-4.4z"/><circle fill="#FFF" cx="26.2" cy="44.7" r="1.2"/><path fill="#CEA166" d="m199.2 46.7 2-2.3 8.3 7.4-2 2.3z"/><path fill="#D2D2D2" d="m198.2 49.8 1.8-1.2 3.5 5.3-1.9 1.2zM195.2 50.6l2.1-.6 1.5 6.1-2 .6zM192.2 50.5h2.2v6.3h-2.2zM188.6 50.5h2.2v6.3h-2.2zM185.3 50.5h2.2v6.3h-2.2zM200.2 31.5c-2 5.2-.1 10.9 4.1 14.1-.3-1.2 0-2.5.9-3.5a4 4 0 0 1 3-1.4 6 6 0 0 1-2.1-7 6 6 0 0 1 7.6-3.6l1.4-6.1a12.4 12.4 0 0 0-14.9 7.5z"/><path fill="#D2D2D2" d="m226.3 33.1-5.5 2.9a6 6 0 0 1-9.9 6.9 3 3 0 0 0-4.3-.7 3 3 0 0 0-.7 4.3 12.3 12.3 0 0 0 17.1 2.9 12.4 12.4 0 0 0 3.3-16.3z"/><circle fill="#FFF" cx="208.3" cy="44.7" r="1.2"/></svg>